<svg id="レイヤー_1" data-name="レイヤー 1" xmlns="http://www.w3.org/2000/svg" viewBox="0 0 34 35.5"><defs><style>.cls-1,.cls-2{fill:#522f60;}.cls-2,.cls-3{stroke:#fff;stroke-miterlimit:10;}.cls-3{fill:#fff;}</style></defs><ellipse class="cls-1" cx="17" cy="32.36" rx="17" ry="3.14"/><path class="cls-2" d="M34.13,15.57c0,6.34-12.75,20.82-12.75,20.82S8.63,21.91,8.63,15.57,14.34,4.08,21.38,4.08,34.13,9.23,34.13,15.57Z" transform="translate(-4.86 -3.58)"/><ellipse class="cls-3" cx="16.37" cy="11.11" rx="7.97" ry="7.18"/><path class="cls-1" d="M24.2,11.42H19.94l-1.5,2.36h.77v4h.5V15.18h.93v2.58h4.24v-4h.82Zm.24,5.67H21.32v-3h3.12Z" transform="translate(-4.86 -3.58)"/><path class="cls-1" d="M18.43,13.72l0,0v.1l0-.06h0Z" transform="translate(-4.86 -3.58)"/><rect class="cls-1" x="12.64" y="9.76" width="0.28" height="4.63"/><path class="cls-1" d="M18.52,12.13a.57.57,0,0,0-.54-.58H17.3a.56.56,0,0,0-.54.58v.63a.56.56,0,0,0,.54.58h.2v-.21h.28v.21H18a.57.57,0,0,0,.54-.58Z" transform="translate(-4.86 -3.58)"/></svg>