<svg id="レイヤー_1" data-name="レイヤー 1" xmlns="http://www.w3.org/2000/svg" viewBox="0 0 30 30.16"><defs><style>.cls-1{fill:#522f60;}.cls-2,.cls-4{fill:#fff;}.cls-2{stroke:#f2f2f2;}.cls-2,.cls-5,.cls-6,.cls-7{stroke-miterlimit:10;}.cls-2,.cls-5{stroke-width:0.32px;}.cls-3{fill:#e6e6e6;}.cls-5,.cls-6,.cls-7{fill:none;}.cls-5{stroke:#e6e6e6;}.cls-6,.cls-7{stroke:#fff;}.cls-6{stroke-width:0.61px;}.cls-7{stroke-width:0.68px;}</style></defs><path class="cls-1" d="M1,2.16h20a1,1,0,0,1,1,1V22.38a2.37,2.37,0,0,1-2.37,2.37H2.37A2.37,2.37,0,0,1,0,22.38V3.13a1,1,0,0,1,1-1Z"/><rect class="cls-2" x="3.28" y="9.79" width="4.47" height="3.26"/><rect class="cls-2" x="3.28" y="14.23" width="4.47" height="3.26"/><rect class="cls-2" x="8.89" y="9.79" width="4.47" height="3.26"/><rect class="cls-2" x="8.89" y="14.23" width="4.47" height="3.26"/><rect class="cls-2" x="14.5" y="9.79" width="4.47" height="3.26"/><rect class="cls-2" x="14.5" y="14.23" width="4.47" height="3.26"/><rect class="cls-2" x="3.28" y="18.68" width="4.47" height="3.26"/><rect class="cls-2" x="8.89" y="18.68" width="4.47" height="3.26"/><path class="cls-3" d="M1,1.94H21a1,1,0,0,1,1,1V6.38a0,0,0,0,1,0,0H0a0,0,0,0,1,0,0V2.9a1,1,0,0,1,1-1Z"/><rect class="cls-2" x="14.5" y="18.68" width="4.47" height="3.26"/><rect class="cls-4" x="3.21" y="0.16" width="3.33" height="4.37" rx="0.64"/><rect class="cls-5" x="3.21" y="0.16" width="3.33" height="4.37" rx="0.64"/><rect class="cls-4" x="9.39" y="0.16" width="3.33" height="4.37" rx="0.64"/><rect class="cls-5" x="9.39" y="0.16" width="3.33" height="4.37" rx="0.64"/><rect class="cls-4" x="15.57" y="0.16" width="3.33" height="4.37" rx="0.64"/><rect class="cls-5" x="15.57" y="0.16" width="3.33" height="4.37" rx="0.64"/><path class="cls-1" d="M24.4,33.17a8.06,8.06,0,1,1,8-8.06A8,8,0,0,1,24.4,33.17Z" transform="translate(-2.62 -3.25)"/><path class="cls-4" d="M24.4,17.29a7.82,7.82,0,1,1-7.74,7.82,7.79,7.79,0,0,1,7.74-7.82m0-.48a8.3,8.3,0,1,0,8.22,8.3,8.26,8.26,0,0,0-8.22-8.3Z" transform="translate(-2.62 -3.25)"/><line class="cls-6" x1="21.43" y1="15.29" x2="21.43" y2="21.76"/><line class="cls-7" x1="25.96" y1="22.09" x2="21.1" y2="22.09"/></svg>