<svg id="レイヤー_1" data-name="レイヤー 1" xmlns="http://www.w3.org/2000/svg" viewBox="0 0 40 40.15"><defs><style>.cls-1{fill:#522f60;}.cls-2,.cls-4{fill:#fff;}.cls-2{stroke:#f2f2f2;}.cls-2,.cls-5{stroke-miterlimit:10;stroke-width:0.31px;}.cls-3{fill:#e6e6e6;}.cls-5{fill:none;stroke:#e6e6e6;}</style></defs><path class="cls-1" d="M.92,3.41H39a.92.92,0,0,1,.92.92V37.9a2.25,2.25,0,0,1-2.25,2.25H2.25A2.25,2.25,0,0,1,0,37.9V4.33A.92.92,0,0,1,.92,3.41Z"/><rect class="cls-2" x="5.97" y="15.82" width="8.14" height="5.3"/><rect class="cls-2" x="5.97" y="23.04" width="8.14" height="5.3"/><rect class="cls-2" x="16.19" y="15.82" width="8.14" height="5.3"/><rect class="cls-2" x="16.19" y="23.04" width="8.14" height="5.3"/><rect class="cls-2" x="26.41" y="15.82" width="8.14" height="5.3"/><rect class="cls-2" x="26.41" y="23.04" width="8.14" height="5.3"/><rect class="cls-2" x="5.97" y="30.27" width="8.14" height="5.3"/><rect class="cls-2" x="16.19" y="30.27" width="8.14" height="5.3"/><path class="cls-3" d="M.91,3H39.09A.91.91,0,0,1,40,4v6.31a0,0,0,0,1,0,0H0a0,0,0,0,1,0,0V4A.91.91,0,0,1,.91,3Z"/><rect class="cls-2" x="26.41" y="30.27" width="8.14" height="5.3"/><rect class="cls-4" x="5.84" y="0.15" width="6.06" height="7.11" rx="0.61"/><rect class="cls-5" x="5.84" y="0.15" width="6.06" height="7.11" rx="0.61"/><rect class="cls-4" x="17.1" y="0.15" width="6.06" height="7.11" rx="0.61"/><rect class="cls-5" x="17.1" y="0.15" width="6.06" height="7.11" rx="0.61"/><rect class="cls-4" x="28.35" y="0.15" width="6.06" height="7.11" rx="0.61"/><rect class="cls-5" x="28.35" y="0.15" width="6.06" height="7.11" rx="0.61"/></svg>