<?xml version="1.0" encoding="UTF-8"?><svg id="_イヤー_1" xmlns="http://www.w3.org/2000/svg" viewBox="0 0 171.88 206.22"><defs><style>.cls-1{fill:#b3b3b3;font-family:KozGoPr6N-Regular-83pv-RKSJ-H, 'Kozuka Gothic Pr6N';font-size:21px;}.cls-2,.cls-3{fill:#ccc;}.cls-3{fill-rule:evenodd;}</style></defs><g><path class="cls-2" d="M17.89,91.86c.12-.41,.26-.81,.42-1.2-.15,.4-.29,.79-.42,1.2Z"/><path class="cls-2" d="M116.47,145.3c-3.02,.97-6.25,1.18-9.45,.68h0c3.2,.5,6.43,.29,9.45-.68,7.22-2.33,11.56-8.48,11.74-15.42-.18,6.94-4.52,13.09-11.74,15.42Z"/><path class="cls-2" d="M66.01,62.78c.11-.36,.23-.71,.36-1.06-.13,.35-.25,.7-.36,1.06Z"/><path class="cls-2" d="M160.13,98.29c-2.5,.8-5.14,1.09-7.79,.88h0c2.65,.21,5.3-.07,7.79-.88,6.59-2.12,10.78-7.44,11.6-13.63-.82,6.19-5.01,11.5-11.6,13.63Z"/><path class="cls-2" d="M138.59,122.01c-2.63,.85-5.43,1.11-8.23,.83h0c2.8,.28,5.6,.01,8.23-.83,7.22-2.33,11.56-8.48,11.74-15.42-.18,6.94-4.52,13.09-11.74,15.42Z"/><path class="cls-2" d="M31.75,35.29c.49-.36,1-.69,1.54-1-.54,.31-1.05,.64-1.54,1Z"/><path class="cls-2" d="M99.64,156.53c2.04-2.32,3.36-5.16,3.85-8.23h0c-.49,3.07-1.81,5.91-3.85,8.23Z"/><rect class="cls-2" x="103.71" y="145.19" height="0"/><path class="cls-2" d="M32.47,134.4h0c-.07,.04-.13,.08-.2,.12h0c.07-.04,.14-.08,.2-.12Z"/><path class="cls-2" d="M62.28,170.77c4.16-2.31,7.03-6.15,8.07-10.65h0c-1.04,4.5-3.92,8.33-8.07,10.65Z"/><path class="cls-2" d="M43.05,9.8c-5.91,4.32-8.27,11.97-5.63,19.45h0c-2.64-7.48-.28-15.13,5.63-19.45Z"/><path class="cls-2" d="M32.55,138.33c.11,.08,.21,.16,.32,.24h0c-.11-.08-.21-.16-.32-.24Z"/><path class="cls-2" d="M17.85,92.01c-.42,1.47-.64,3.01-.65,4.59h0c0-1.58,.23-3.12,.65-4.59Z"/><path class="cls-2" d="M29.11,37.69c-3.89,4.42-5.18,10.73-3.03,16.93-2.15-6.2-.86-12.51,3.03-16.93Z"/><path class="cls-2" d="M99.64,156.53c-.39,.44-.8,.86-1.24,1.27,.44-.4,.86-.82,1.24-1.27Z"/><path class="cls-2" d="M153.67,61.98c.55,.1,1.1,.23,1.64,.37-.55-.14-1.09-.27-1.64-.37Z"/><path class="cls-2" d="M97.01,158.93c-.49,.36-1,.69-1.54,1,.54-.31,1.05-.64,1.54-1Z"/><path class="cls-2" d="M152.35,61.77c.14,.02,.28,.04,.42,.06-.14-.02-.28-.05-.42-.06Z"/><path class="cls-2" d="M150.95,61.65c.41,.02,.83,.06,1.24,.11-.41-.05-.83-.08-1.24-.11Z"/><path class="cls-3" d="M108.41,41.3c-.29-2.07-.9-4.13-1.8-6.11-.03-.07-.06-.14-.1-.2l4.16-7.19c1.44-2.48,1.83-5.44,1.09-8.21-.74-2.77-2.55-5.14-5.04-6.58l-5.85-3.39c-2.65-1.53-3.7-4.68-2.35-7.01l.2-.35c.79-1.36,2.45-2.26,4.22-2.26,1.04,0,2.09,.29,3.02,.83l40.44,23.41c1.35,.78,2.32,2,2.73,3.42,.26,.89,.4,2.24-.38,3.59l-.19,.33c-.8,1.38-2.46,2.28-4.23,2.28-1.04,0-2.09-.29-3.02-.83l-5.85-3.39c-1.66-.96-3.54-1.46-5.42-1.46-.93,0-1.87,.12-2.79,.37-2.77,.74-5.14,2.55-6.58,5.04l-2.69,4.65c-1.75,.15-3.47,.49-5.1,1.02-1.57,.51-3.08,1.19-4.47,2.04h0Z"/><path class="cls-2" d="M106.02,53.96c4.91-.29,9.99,.91,14.56,3.55,4.61,2.67,8.21,6.5,10.43,11.1,2.31-4.11,6.16-7.38,11.25-9.02,.02,0,.04-.01,.06-.02-.25-1.78-.78-3.58-1.6-5.36-1.89-4.09-5.04-7.5-9.11-9.85-4.91-2.84-10.53-3.75-15.67-2.6-.57,.13-1.13,.27-1.69,.45-1.88,.61-3.57,1.47-5.04,2.55-.21,.16-.42,.32-.63,.48-.05,1.02-.18,2.03-.39,3.01-.42,2.02-1.16,3.94-2.18,5.7Z"/><path class="cls-2" d="M97.6,145.76c-4.75-2.75-8.42-6.72-10.62-11.49-1.37-2.97-2.04-6.01-2.07-8.94-.2,.07-.4,.14-.6,.21-2.32,.75-4.75,1.1-7.2,1.09,3.03,8.09,1,16.42-4.72,21.69,.36,.86,.67,1.74,.92,2.64,.76,2.74,.96,5.44,.66,8,.21,.13,.42,.26,.63,.38,5.46,3.16,11.78,3.94,17.36,2.15,1.26-.4,2.42-.92,3.5-1.54,.54-.31,1.05-.64,1.54-1,.49-.36,.96-.74,1.4-1.14,.44-.4,.86-.82,1.24-1.27,2.04-2.32,3.36-5.16,3.85-8.23-2.02-.6-4.01-1.44-5.9-2.54Z"/><path class="cls-2" d="M70.78,156.67v-.1c.03-1.67-.19-3.4-.67-5.14-.1-.36-.21-.72-.34-1.08-.92,.59-1.9,1.12-2.94,1.57-.65,.28-1.32,.54-2.01,.76-.33,.11-.66,.2-1,.29-6.25,1.7-13.21,.7-19.24-2.79-.23-.13-.45-.27-.68-.41,1.76,6.95-.1,13.83-4.72,18.58,.79,.61,1.63,1.17,2.5,1.68,4.41,2.55,9.48,3.57,14.27,2.85,1.67-.25,3.23-.69,4.66-1.3,.57-.24,1.13-.52,1.66-.81,4.16-2.31,7.03-6.15,8.07-10.65,.26-1.12,.4-2.27,.43-3.45Z"/><path class="cls-2" d="M128.88,81.7c-.19-1.07-.29-2.13-.31-3.17h0c-.04-1.93,.2-3.82,.69-5.62-.28-.98-.63-1.96-1.08-2.94-1.3-2.81-3.19-5.3-5.57-7.34-1.08-.93-2.26-1.77-3.53-2.5-1.02-.59-2.08-1.1-3.15-1.53-.72-.28-1.44-.53-2.17-.73-3.46-.98-7.05-1.1-10.42-.32l-.03,.03c1.29,1.6,2.38,3.35,3.25,5.22,1.44,3.12,2.1,6.3,2.07,9.37h0c-.01,1.27-.14,2.52-.39,3.73-.2,1-.48,1.98-.84,2.93,2.23,.6,4.41,1.5,6.49,2.71,1.47,.85,2.84,1.83,4.1,2.9,.87-.42,1.78-.79,2.74-1.1,2.65-.86,5.45-1.2,8.27-1.07-.04-.18-.08-.37-.11-.55Z"/><path class="cls-2" d="M67.02,45.57c.49,1.35,.85,2.71,1.07,4.06,.46,.79,.98,1.54,1.54,2.27,1.76-1.32,3.78-2.38,6.06-3.11,6.5-2.09,13.88-1.18,20.24,2.5,1.31,.76,2.53,1.61,3.66,2.54,.41,.34,.82,.69,1.21,1.05,.07,.06,.13,.13,.19,.19,.1-.11,.2-.22,.3-.33,2.03-2.33,3.34-5.18,3.81-8.26,.11-.7,.18-1.41,.2-2.14,0-.23,0-.46,0-.69,0-.38-.02-.75-.05-1.13-.1-1.32-.36-2.66-.77-3.99-.26-.84-.57-1.67-.96-2.5-1.89-4.09-5.04-7.5-9.11-9.85-1.36-.79-2.78-1.43-4.23-1.92-3.59-1.21-7.36-1.49-10.92-.79,1.85,9.47-2.96,18.61-12.25,22.13Z"/><path class="cls-2" d="M35.93,66.33c.12,.07,.23,.13,.35,.19,2.28-2.62,5.33-4.68,9.03-5.87,5.46-1.76,11.53-1.39,17.11,.95,1.78-2.76,2.71-6.03,2.62-9.46-.02-.6-.06-1.2-.14-1.81-.17-1.28-.47-2.57-.93-3.86-.25,.05-.49,.11-.74,.15-5.78,1.09-12.02-.02-17.5-3.19-4.35-2.52-7.79-6.06-10.03-10.31-.85,.33-1.65,.71-2.4,1.15-.54,.31-1.05,.64-1.54,1-.98,.72-1.86,1.52-2.64,2.41-3.89,4.42-5.18,10.73-3.03,16.93,.21,.62,.46,1.24,.75,1.85,1.42,3.07,3.54,5.75,6.23,7.9,.9,.71,1.86,1.37,2.87,1.96Z"/><path class="cls-2" d="M37.73,30.06c.07,.18,.15,.36,.23,.54,.06,.13,.11,.26,.17,.39,.19,.42,.41,.83,.63,1.24,1.07,1.96,2.44,3.75,4.07,5.31,.49,.47,1,.92,1.54,1.35,.45,.36,.91,.7,1.39,1.03,.48,.33,.97,.64,1.48,.93,1.36,.79,2.78,1.43,4.23,1.92,3.59,1.21,7.36,1.49,10.92,.79,.08-.02,.16-.03,.24-.05h0c.66-.14,1.32-.31,1.97-.52,.31-.1,.62-.21,.93-.32h.01c.05-.03,.1-.05,.16-.07,6.56-2.57,10.48-8.44,10.65-15.02,.03-1.06-.05-2.14-.22-3.22h0c-.17-1.05-.42-2.11-.78-3.17-.22-.65-.48-1.29-.77-1.93-1.89-4.09-5.04-7.5-9.11-9.85-5.46-3.16-11.78-3.94-17.36-2.15-1.88,.61-3.57,1.47-5.04,2.55-5.91,4.32-8.27,11.97-5.63,19.45,.1,.27,.2,.54,.31,.81Z"/><path class="cls-2" d="M127.78,125.55c-2.77-.57-5.5-1.6-8.07-3.08-1.47-.85-2.84-1.82-4.1-2.9-.87,.42-1.78,.79-2.74,1.1-6.05,1.95-12.86,1.29-18.9-1.78-1.24,1.6-2.76,3.01-4.52,4.18-.37,.25-.76,.49-1.16,.71-.07,.68-.09,1.37-.08,2.07h0c.05,1.84,.38,3.73,1.04,5.61,.21,.61,.46,1.22,.74,1.83,1.3,2.81,3.19,5.3,5.57,7.35,.43,.37,.88,.73,1.35,1.07,.7,.51,1.43,.99,2.19,1.43,1.36,.79,2.78,1.43,4.23,1.92,.12,.04,.25,.07,.37,.11h0c1.09,.35,2.2,.61,3.32,.79,3.2,.5,6.43,.29,9.45-.68,7.22-2.33,11.56-8.48,11.74-15.42,.04-1.42-.11-2.87-.43-4.33Z"/><path class="cls-2" d="M149.83,101.93c-2.95-.54-5.85-1.61-8.57-3.18-4.61-2.67-8.21-6.51-10.43-11.1-.06-.13-.13-.26-.19-.39-.29-.62-.53-1.24-.76-1.86-.43-.03-.86-.06-1.28-.07-.13,0-.27,0-.4,0h0c-2.08,0-4.14,.31-6.1,.94-.55,.18-1.09,.38-1.61,.6,1.13,1.27,2.13,2.65,2.97,4.12h0c.38,.65,.73,1.32,1.04,2,.16,.35,.31,.7,.45,1.05,2.66,6.56,1.95,13.32-1.37,18.53-.55,.85-1.16,1.67-1.84,2.43h0c-.98,1.09-2.09,2.07-3.33,2.94,.88,.7,1.82,1.34,2.82,1.92,1.36,.79,2.78,1.43,4.23,1.92,.41,.14,.83,.26,1.24,.38h0c1.21,.33,2.44,.56,3.66,.68,2.8,.28,5.6,.01,8.23-.83,7.22-2.33,11.56-8.48,11.74-15.42,.04-1.53-.12-3.09-.5-4.66Z"/><path class="cls-2" d="M97.7,110.47h0c-.36,2.08-1.06,4.06-2.05,5.88,5.09,2.48,10.79,2.99,15.86,1.35,.55-.18,1.08-.38,1.6-.6,.99-.42,1.91-.92,2.77-1.48h0c1.21-.8,2.29-1.73,3.22-2.77,.68-.75,1.27-1.57,1.79-2.42,2.54-4.21,3.13-9.54,1.26-14.77-.2-.56-.42-1.12-.68-1.68-.21-.45-.43-.89-.67-1.32h0c-.85-1.55-1.89-2.98-3.09-4.28h0c-.77-.83-1.61-1.61-2.52-2.33-.88-.7-1.83-1.34-2.83-1.92-2.01-1.16-4.13-2-6.3-2.51-1.87,3.26-4.73,5.97-8.41,7.74-.87,.42-1.78,.79-2.73,1.1-.15,.05-.31,.09-.46,.13-.98,.29-1.99,.52-3,.68,1.83,1.96,3.34,4.18,4.46,6.61,1.37,2.98,2.04,6.01,2.07,8.95,.01,1.24-.09,2.46-.29,3.65Z"/><path class="cls-2" d="M98.72,57.1h0c-.25-.24-.51-.47-.78-.7-.11-.1-.23-.19-.35-.29-.99-.81-2.05-1.56-3.18-2.21-.68-.39-1.38-.75-2.08-1.07-.97-.44-1.96-.8-2.96-1.1-.21-.06-.42-.12-.63-.18-3.91-1.04-7.97-.99-11.69,.2-.31,.1-.62,.21-.93,.32-.03,.01-.05,.02-.08,.03-.27,.11-.55,.22-.81,.33-1.22,.54-2.34,1.2-3.35,1.95-.83,.62-1.58,1.3-2.26,2.04-1.43,1.55-2.53,3.34-3.26,5.29-.13,.35-.25,.7-.36,1.06-.05,.18-.1,.37-.15,.56,4.59,2.74,8.16,6.64,10.31,11.3,1.36,2.96,2.03,5.97,2.07,8.89,1.95,.48,3.87,1.19,5.72,2.13,.45,.23,.9,.47,1.35,.73,.06,.03,.11,.07,.16,.1,.5,.29,.98,.6,1.46,.92,.48,.32,.94,.66,1.39,1.01h0c.32-.01,.63-.03,.94-.06,.92-.08,1.82-.23,2.71-.44,.53-.12,1.06-.26,1.58-.43,.54-.17,1.06-.37,1.57-.59h0c3.07-1.3,5.53-3.34,7.26-5.83,.33-.47,.63-.96,.91-1.47,.26-.48,.5-.97,.71-1.47,.37-.87,.66-1.78,.87-2.71,.18-.79,.31-1.59,.37-2.41,.17-2.11-.05-4.31-.69-6.51h0c-.18-.61-.39-1.21-.63-1.82-.12-.31-.26-.62-.4-.93-.08-.18-.17-.36-.26-.54h0c-.63-1.28-1.39-2.49-2.27-3.61-.27-.35-.56-.7-.86-1.03h0c-.3-.34-.61-.68-.94-1-.15-.15-.31-.31-.47-.46Z"/><path class="cls-2" d="M82.93,122.58c.59-.19,1.16-.41,1.72-.65,.19-.08,.37-.17,.55-.25,1.7-.81,3.19-1.85,4.46-3.07h0c.48-.46,.93-.95,1.35-1.46,.32-.39,.62-.8,.9-1.21,.28-.42,.54-.85,.78-1.29,.2-.36,.37-.73,.54-1.1h0c.73-1.62,1.19-3.37,1.36-5.18,.21-2.18,.01-4.46-.65-6.74-.05-.18-.12-.37-.18-.55-.04-.13-.08-.25-.12-.38-.21-.62-.46-1.24-.75-1.86-1.29-2.79-3.16-5.26-5.51-7.29-.02-.02-.04-.03-.06-.05-.66-.57-1.35-1.1-2.08-1.59-.47-.32-.95-.62-1.45-.91h0c-.49-.29-1-.55-1.5-.79-.54-.26-1.09-.51-1.64-.73-.83-.33-1.67-.6-2.52-.82-.03,0-.06-.01-.08-.02-.13,.93-.33,1.84-.59,2.72-1.74,5.93-6.28,10.84-12.9,12.97-1.36,.44-2.76,.73-4.17,.91-.29,2.6-1.07,5.07-2.32,7.29,2.67,.58,5.3,1.59,7.77,3.02,3.88,2.25,7.04,5.31,9.27,8.96,.2,.33,.39,.66,.57,.99,2.48,.14,4.94-.16,7.27-.91Z"/><path class="cls-2" d="M36.22,135.82s.03,.09,.05,.13c.21,.59,.45,1.18,.72,1.77,.11,.25,.23,.49,.35,.73,.13,.13,.25,.26,.38,.38h0c1.6,1.66,2.97,3.51,4.06,5.53h0c.25,.24,.51,.48,.78,.71,.22,.19,.44,.37,.66,.55,.45,.36,.91,.7,1.39,1.03,.48,.33,.97,.64,1.48,.93,1.71,.99,3.5,1.74,5.32,2.26,3.62,1.02,7.38,1.11,10.89,.22,.39-.1,.77-.21,1.15-.33,.64-.21,1.25-.44,1.85-.71,1.12-.5,2.15-1.1,3.1-1.78h0c.87-.63,1.67-1.34,2.39-2.1,4.04-4.31,5.51-10.58,3.55-16.79-.06-.18-.11-.37-.18-.55-.16-.45-.34-.9-.53-1.35h0l-.03-.08c-.06-.13-.11-.25-.17-.38-.39-.85-.84-1.66-1.33-2.44-.14-.22-.29-.44-.43-.66h0c-1.23-1.79-2.73-3.4-4.46-4.79-.45-.36-.91-.7-1.39-1.03-.48-.33-.97-.64-1.48-.93-.36-.21-.73-.41-1.09-.59-.68-.35-1.36-.66-2.06-.93-.96-.38-1.94-.69-2.93-.93h0c-.69-.17-1.39-.31-2.08-.41-.35,.42-.71,.83-1.09,1.22-2.18,2.22-4.96,3.96-8.26,5.02-1.14,.37-2.31,.64-3.5,.82,.15,6.07-2.42,11.71-7.09,15.48h0Z"/><path class="cls-2" d="M28.94,80.83c-5.2,1.67-8.9,5.33-10.63,9.83-.15,.4-.29,.79-.42,1.2-.01,.05-.03,.1-.04,.15-.42,1.47-.64,3.01-.65,4.59,4.55-.06,9.21,1.16,13.43,3.6,4.75,2.75,8.42,6.72,10.62,11.49,.16,.35,.31,.69,.45,1.04,.44,1.08,.78,2.17,1.04,3.25h0c.1,.4,.18,.8,.25,1.19h0c.11-.02,.22-.03,.33-.06,.72-.14,1.43-.33,2.12-.55,2.39-.77,4.46-1.96,6.17-3.46h0c.63-.55,1.21-1.14,1.74-1.77,.36-.43,.7-.88,1.02-1.34,.42-.62,.8-1.27,1.13-1.95,.21-.43,.4-.86,.57-1.31,.41-1.07,.71-2.18,.9-3.32h0c-.75-.01-1.51-.07-2.27-.15h0c-1.11-.12-2.22-.32-3.32-.59-2.43-.6-4.81-1.55-7.07-2.86-4.74-2.75-8.42-6.72-10.62-11.48-1.25-2.71-1.91-5.46-2.04-8.15-.92,.16-1.82,.37-2.71,.65Z"/><path class="cls-2" d="M40.38,159.96c1.17-3.49,1.19-7.45-.17-11.36-.21-.62-.46-1.24-.75-1.85-.11-.25-.23-.49-.36-.73-.97-1.9-2.22-3.64-3.71-5.19h0c-.24-.25-.48-.49-.73-.72-.25-.24-.51-.48-.78-.7-.33-.29-.68-.56-1.03-.83-.11-.08-.21-.16-.32-.24-.05-.03-.09-.06-.14-.1-.88,.43-1.81,.81-2.78,1.12-6.5,2.09-13.88,1.18-20.25-2.5-.13-.08-.26-.16-.4-.24-3.59,2.24-6.06,5.63-7.13,9.52-.12,.45-.23,.9-.32,1.36v.02c-.56,3.04-.3,6.32,.91,9.55,.18,.47,.37,.95,.59,1.42,1.15,2.48,2.76,4.71,4.76,6.61,.11,.1,.21,.2,.32,.3,.37,.34,.75,.67,1.15,.98,.9,.71,1.86,1.37,2.87,1.96,1.36,.79,2.78,1.43,4.23,1.92,.61,.21,1.22,.38,1.84,.53,.26,.06,.51,.12,.77,.18,2.81,.59,5.66,.62,8.4,.07,.72-.14,1.43-.33,2.12-.55,1.8-.58,3.41-1.4,4.83-2.4,.84-.6,1.62-1.26,2.32-1.98h0c1.53-1.58,2.7-3.43,3.48-5.45,.09-.23,.17-.46,.25-.69Z"/><path class="cls-2" d="M12.31,134.99h0c.45,.22,.91,.43,1.37,.62,.92,.38,1.86,.7,2.8,.96,.47,.13,.95,.24,1.42,.34,1.28,.26,2.57,.41,3.85,.43h.01c1.84,.03,3.67-.18,5.44-.64,.35-.09,.71-.19,1.05-.31,.24-.08,.47-.16,.69-.24h0c1.19-.44,2.3-.98,3.32-1.62,.07-.04,.14-.08,.2-.12,1.06-.68,2.02-1.47,2.88-2.34h0c2.98-3.04,4.63-7.1,4.65-11.45h0c0-.76-.04-1.53-.14-2.3h0c-.03-.27-.08-.54-.12-.82h0c-.12-.68-.27-1.37-.47-2.06-.09-.29-.18-.59-.28-.88-.22-.64-.47-1.27-.76-1.9-1.28-2.76-3.13-5.22-5.45-7.24-.26-.22-.52-.44-.78-.66-.9-.71-1.86-1.37-2.87-1.96-3.66-2.12-7.71-3.16-11.66-3.08h0c-1.09,.02-2.18,.13-3.25,.33-.83,.15-1.65,.35-2.45,.61-10.05,3.24-14.53,13.88-9.97,23.74,1.56,3.37,3.98,6.28,7.06,8.52,.65,.47,1.34,.92,2.05,1.33,.47,.27,.94,.51,1.42,.75Z"/><path class="cls-2" d="M34.94,79.89c.06,2.45,.63,4.98,1.77,7.46,1.89,4.09,5.03,7.49,9.1,9.85,1.36,.79,2.78,1.43,4.23,1.92,.51,.17,1.02,.32,1.53,.45,1.1,.29,2.2,.49,3.31,.6h0c.77,.08,1.53,.12,2.3,.11h0c1.11,0,2.21-.1,3.29-.28,.2-.03,.39-.06,.59-.1,.72-.14,1.43-.33,2.12-.55,5.19-1.67,8.89-5.33,10.63-9.83,.22-.57,.41-1.16,.57-1.76,.15-.57,.27-1.15,.36-1.74h0c.07-.49,.13-.99,.16-1.49,.03-.53,.04-1.06,.03-1.59-.06-2.05-.49-4.15-1.31-6.23-.14-.37-.3-.73-.46-1.09-1.24-2.68-3.02-5.07-5.25-7.06-.32-.28-.65-.56-.98-.83-.5-.4-1.03-.78-1.57-1.14h0c-.42-.28-.86-.56-1.3-.81-.11-.07-.23-.13-.35-.19-.51-.28-1.02-.55-1.55-.79-.56-.26-1.12-.49-1.69-.7h0c-4.53-1.69-9.39-1.88-13.78-.46-2.87,.92-5.28,2.46-7.16,4.4h0c-.74,.76-1.39,1.59-1.96,2.47-1.22,1.89-2.04,4.02-2.4,6.28-.16,1.02-.24,2.06-.22,3.12h0Z"/><path class="cls-2" d="M171.73,84.66c.08-.59,.12-1.19,.14-1.79s0-1.21-.05-1.83c-.17-2.15-.73-4.34-1.73-6.49-1.89-4.09-5.04-7.5-9.11-9.85-1.02-.59-2.08-1.1-3.15-1.53-.83-.33-1.67-.6-2.52-.82-.55-.14-1.09-.27-1.64-.37-.3-.06-.6-.1-.9-.15-.14-.02-.28-.05-.42-.06-.05,0-.1,0-.16-.02-.41-.05-.83-.08-1.24-.11-1.73-.1-3.46,.01-5.14,.34-.74,.15-1.47,.33-2.19,.56-.39,.13-.78,.27-1.15,.42-4.91,1.95-8.33,5.74-9.79,10.3-.08,.24-.15,.48-.21,.72-.31,1.15-.5,2.33-.56,3.55h0c-.06,1.12,0,2.25,.16,3.4,.08,.56,.19,1.13,.32,1.69,.06,.24,.12,.48,.19,.72,.1,.36,.21,.72,.34,1.08,.18,.53,.4,1.05,.63,1.57h0c.04,.09,.08,.19,.12,.28,.74,1.61,1.69,3.12,2.8,4.49,1.71,2.12,3.84,3.93,6.31,5.36,1.36,.79,2.78,1.43,4.23,1.92,.56,.19,1.12,.35,1.68,.49h0c1.21,.31,2.44,.51,3.66,.61,2.65,.21,5.3-.07,7.79-.88,6.59-2.12,10.78-7.44,11.6-13.63Z"/></g><text class="cls-1" transform="translate(1.94 199.1)"><tspan x="0" y="0">画像がありません</tspan></text></svg>