<svg id="レイヤー_1" data-name="レイヤー 1" xmlns="http://www.w3.org/2000/svg" viewBox="0 0 80 80">
  <defs>
    <style>
      .cls-1 {
        fill: none;
      }

      .cls-2 {
        fill: #231815;
        fill-rule: evenodd;
      }
    </style>
  </defs>
  <g>
    <path class="cls-1" d="M33.23,53.9c.07-.19.16-.37.24-.55C33.39,53.53,33.3,53.71,33.23,53.9Z" transform="translate(-23.03 -9.33)"/>
    <path class="cls-1" d="M75.19,73.83a9.86,9.86,0,0,1-4.28.69h0a9.86,9.86,0,0,0,4.28-.69,9.42,9.42,0,0,0,6-7.37A9.42,9.42,0,0,1,75.19,73.83Z" transform="translate(-23.03 -9.33)"/>
    <path class="cls-1" d="M56.22,38.94a5.16,5.16,0,0,1,.21-.49A5.16,5.16,0,0,0,56.22,38.94Z" transform="translate(-23.03 -9.33)"/>
    <path class="cls-1" d="M97,51a9.65,9.65,0,0,1-3.55.71h0A9.65,9.65,0,0,0,97,51a9.52,9.52,0,0,0,5.85-6.56A9.52,9.52,0,0,1,97,51Z" transform="translate(-23.03 -9.33)"/>
    <path class="cls-1" d="M86.21,62.51a9.9,9.9,0,0,1-3.75.71h0a9.9,9.9,0,0,0,3.75-.71,9.41,9.41,0,0,0,6-7.37A9.41,9.41,0,0,1,86.21,62.51Z" transform="translate(-23.03 -9.33)"/>
    <path class="cls-1" d="M42,28c.24-.18.48-.35.74-.51C42.52,27.67,42.28,27.84,42,28Z" transform="translate(-23.03 -9.33)"/>
    <path class="cls-1" d="M67.1,79.54a9.05,9.05,0,0,0,2.11-3.84h0A9.05,9.05,0,0,1,67.1,79.54Z" transform="translate(-23.03 -9.33)"/>
    <rect class="cls-1" x="46.42" y="64.97"/>
    <path class="cls-1" d="M37.86,72.36h0l-.09.06h0Z" transform="translate(-23.03 -9.33)"/>
    <path class="cls-1" d="M49.63,87.43a9.49,9.49,0,0,0,4.12-5.09h0A9.49,9.49,0,0,1,49.63,87.43Z" transform="translate(-23.03 -9.33)"/>
    <path class="cls-1" d="M48.29,16.15a8.64,8.64,0,0,0-3.42,8.93h0A8.64,8.64,0,0,1,48.29,16.15Z" transform="translate(-23.03 -9.33)"/>
    <path class="cls-1" d="M37.72,74.11l.13.09h0Z" transform="translate(-23.03 -9.33)"/>
    <path class="cls-1" d="M33.2,54a8.89,8.89,0,0,0-.5,2.08h0A8.89,8.89,0,0,1,33.2,54Z" transform="translate(-23.03 -9.33)"/>
    <path class="cls-1" d="M40.74,29.2a8.41,8.41,0,0,0-2.13,7.7A8.41,8.41,0,0,1,40.74,29.2Z" transform="translate(-23.03 -9.33)"/>
    <path class="cls-1" d="M67.1,79.54c-.19.21-.4.42-.61.62C66.7,80,66.91,79.75,67.1,79.54Z" transform="translate(-23.03 -9.33)"/>
    <path class="cls-1" d="M95.72,35l.73.1Z" transform="translate(-23.03 -9.33)"/>
    <path class="cls-1" d="M65.81,80.72c-.24.18-.49.36-.74.52C65.32,81.08,65.57,80.9,65.81,80.72Z" transform="translate(-23.03 -9.33)"/>
    <path class="cls-1" d="M95.14,35h0Z" transform="translate(-23.03 -9.33)"/>
    <path class="cls-1" d="M94.51,35h0Z" transform="translate(-23.03 -9.33)"/>
    <path class="cls-2" d="M76.28,27.61a8.67,8.67,0,0,0-.55-2.73v0l2.06-3.17a5,5,0,0,0-1.91-7.16l-1.54-.8a2,2,0,0,1-1-1.28,2.17,2.17,0,0,1,.3-1.76l.1-.15a2.75,2.75,0,0,1,2.24-1.21A2.37,2.37,0,0,1,77,9.59l17.15,8.84a2.08,2.08,0,0,1,1,1.29,2.22,2.22,0,0,1-.31,1.76l-.09.14a2.73,2.73,0,0,1-2.25,1.21,2.49,2.49,0,0,1-1.09-.25l-2.43-1.26A5,5,0,0,0,82.56,23l-1.83,2.81a12.18,12.18,0,0,0-2.34.66,11.77,11.77,0,0,0-2.11,1.1Z" transform="translate(-23.03 -9.33)"/>
    <path d="M74.63,33.37a10.62,10.62,0,0,1,6.4,1,8.76,8.76,0,0,1,4.19,4.55,11.49,11.49,0,0,1,5.47-4.49h0a7.67,7.67,0,0,0-.47-2.34,7.52,7.52,0,0,0-3.66-4,9.27,9.27,0,0,0-6.94-.53q-.39.12-.78.27a10.26,10.26,0,0,0-2.38,1.35l-.31.24a8.94,8.94,0,0,1-.31,1.36A10.42,10.42,0,0,1,74.63,33.37Z" transform="translate(-23.03 -9.33)"/>
    <path d="M66.67,74.8a8.69,8.69,0,0,1-4.78-8.63l-.28.12a11.42,11.42,0,0,1-3.29.78A9.94,9.94,0,0,1,55.21,77a8.65,8.65,0,0,1,.29,1.14,9.26,9.26,0,0,1-.06,3.56l.26.14a9.34,9.34,0,0,0,7.72.26,9.79,9.79,0,0,0,1.65-.83c.25-.16.5-.34.74-.52s.46-.36.68-.56.42-.41.61-.62a9.05,9.05,0,0,0,2.11-3.84A10,10,0,0,1,66.67,74.8Z" transform="translate(-23.03 -9.33)"/>
    <path d="M54.1,80.77v0A8,8,0,0,0,54,78.45c0-.15-.07-.31-.11-.46a12.69,12.69,0,0,1-1.39.82c-.3.15-.62.29-.94.42l-.46.17a10.84,10.84,0,0,1-8.54-.47l-.29-.16a10,10,0,0,1-3,8.51,6.87,6.87,0,0,0,1,.65,9.09,9.09,0,0,0,6.29.7,10.45,10.45,0,0,0,2.16-.77c.27-.13.53-.28.78-.43a9.49,9.49,0,0,0,4.12-5.09A7.74,7.74,0,0,0,54.1,80.77Z" transform="translate(-23.03 -9.33)"/>
    <path d="M83.67,44.86a8.3,8.3,0,0,1,0-1.41h0a9.8,9.8,0,0,1,.56-2.54,7.27,7.27,0,0,0-.35-1.27,7.43,7.43,0,0,0-2.18-3.06,8,8,0,0,0-1.47-1,8.69,8.69,0,0,0-1.35-.55,7.77,7.77,0,0,0-.95-.24,9.54,9.54,0,0,0-4.67.27l0,0A8.69,8.69,0,0,1,75,41.41h0a9.65,9.65,0,0,1-.35,1.68,8.49,8.49,0,0,1-.51,1.35,9.86,9.86,0,0,1,2.8,1,8.89,8.89,0,0,1,1.71,1.13,12,12,0,0,1,5.06-1.42A1.94,1.94,0,0,1,83.67,44.86Z" transform="translate(-23.03 -9.33)"/>
    <path d="M57.45,31.19a9.07,9.07,0,0,1,.3,1.78,7.16,7.16,0,0,0,.59,1,12,12,0,0,1,2.87-1.64,10.88,10.88,0,0,1,9,.3,10,10,0,0,1,1.53,1l.5.42.08.08.15-.16a9.1,9.1,0,0,0,2.09-3.85c.08-.32.14-.64.19-1l0-.31,0-.5a8,8,0,0,0-.17-1.76,7.36,7.36,0,0,0-.32-1.08,7.47,7.47,0,0,0-3.65-4,8.52,8.52,0,0,0-1.82-.69A9.41,9.41,0,0,0,64,20.8,10.6,10.6,0,0,1,57.45,31.19Z" transform="translate(-23.03 -9.33)"/>
    <path d="M42.51,41.74l.15.07a11.78,11.78,0,0,1,4.33-3,11,11,0,0,1,7.66-.26,8.61,8.61,0,0,0,1.61-4.34,7.3,7.3,0,0,0,0-.81A8.2,8.2,0,0,0,56,31.72l-.34.1A10.68,10.68,0,0,1,48,31.1a8.79,8.79,0,0,1-4.05-4.21,11.2,11.2,0,0,0-1.13.62c-.26.16-.5.33-.74.51a9.75,9.75,0,0,0-1.3,1.18,8.41,8.41,0,0,0-2.13,7.7,7.41,7.41,0,0,0,.25.8,7.63,7.63,0,0,0,3.65,4Z" transform="translate(-23.03 -9.33)"/>
    <path d="M45,25.43a2.25,2.25,0,0,0,.08.24l.06.16c.07.18.14.36.22.53a7.29,7.29,0,0,0,1.59,2.21,8.27,8.27,0,0,0,.63.55l.58.4.63.36a9.06,9.06,0,0,0,1.82.68,9.51,9.51,0,0,0,4.88-.08l.11,0h0c.31-.09.61-.19.91-.31l.43-.18h0l.07,0a9.37,9.37,0,0,0,5.48-7.15,7.62,7.62,0,0,0,0-1.43h0a6.58,6.58,0,0,0-.21-1.39,6.13,6.13,0,0,0-.26-.83,7.45,7.45,0,0,0-3.65-4,9.34,9.34,0,0,0-7.72-.25,9.88,9.88,0,0,0-2.38,1.34,8.64,8.64,0,0,0-3.42,8.93A3.57,3.57,0,0,0,45,25.43Z" transform="translate(-23.03 -9.33)"/>
    <path d="M81.18,64.54a10.39,10.39,0,0,1-3.49-1.06A8.89,8.89,0,0,1,76,62.35a11.46,11.46,0,0,1-9.72.57A11.48,11.48,0,0,1,64,65c-.18.12-.37.25-.56.36a7.4,7.4,0,0,0-.12.93h0a7.35,7.35,0,0,0,.21,2.47A7.49,7.49,0,0,0,66,72.6c.18.15.37.29.56.42a7.71,7.71,0,0,0,.92.55,8.52,8.52,0,0,0,1.82.69l.16,0h0a10.08,10.08,0,0,0,1.46.22,9.86,9.86,0,0,0,4.28-.69,9.42,9.42,0,0,0,6-7.37A7.71,7.71,0,0,0,81.18,64.54Z" transform="translate(-23.03 -9.33)"/>
    <path d="M92.18,53.07A10.1,10.1,0,0,1,88.46,52a8.74,8.74,0,0,1-4.19-4.54,1.22,1.22,0,0,0-.07-.17,7.41,7.41,0,0,1-.25-.8l-.58,0-.18,0h0a9.55,9.55,0,0,0-2.79.67q-.39.15-.75.33a8.4,8.4,0,0,1,1.15,1.73h0a8.13,8.13,0,0,1,.38.85c.06.15.11.3.16.45a9.56,9.56,0,0,1-1.46,8.35,12.88,12.88,0,0,1-.94,1.16h0a11.41,11.41,0,0,1-1.64,1.45,8,8,0,0,0,1.19.75,8.75,8.75,0,0,0,1.81.68,4.88,4.88,0,0,0,.55.12h0a9.65,9.65,0,0,0,1.61.16,9.9,9.9,0,0,0,3.75-.71,9.41,9.41,0,0,0,6-7.37A7.55,7.55,0,0,0,92.18,53.07Z" transform="translate(-23.03 -9.33)"/>
    <path d="M68.32,59h0a10.42,10.42,0,0,1-1.19,2.72,9.43,9.43,0,0,0,7.08,0q.39-.15.75-.33a10.06,10.06,0,0,0,1.31-.78h0a10,10,0,0,0,1.58-1.37A9.37,9.37,0,0,0,78.77,58,8.22,8.22,0,0,0,80,51.38a6.91,6.91,0,0,0-.24-.73,5.55,5.55,0,0,0-.24-.56h0a7.25,7.25,0,0,0-1.19-1.79h0a7.66,7.66,0,0,0-1-.94,8,8,0,0,0-1.19-.75,8.66,8.66,0,0,0-2.72-.87,11.29,11.29,0,0,1-4.14,3.81,10.71,10.71,0,0,1-1.28.6l-.21.08c-.46.17-.92.31-1.38.43a8.56,8.56,0,0,1,1.7,2.77,8.71,8.71,0,0,1,.53,3.93A9.27,9.27,0,0,1,68.32,59Z" transform="translate(-23.03 -9.33)"/>
    <path d="M71.21,35.07h0l-.32-.28-.15-.12a8.2,8.2,0,0,0-1.33-.86,7.06,7.06,0,0,0-.89-.39A9,9,0,0,0,67.24,33L67,33a9.62,9.62,0,0,0-5.27.57,3.93,3.93,0,0,0-.43.18l0,0a3.26,3.26,0,0,0-.38.18,10.54,10.54,0,0,0-1.6,1,9.64,9.64,0,0,0-1.11,1,9.23,9.23,0,0,0-1.7,2.5,5.16,5.16,0,0,0-.21.49,2.6,2.6,0,0,0-.1.25,8.73,8.73,0,0,1,4.13,4.65,8.82,8.82,0,0,1,.53,3.89,10.55,10.55,0,0,1,2.48.72l.57.27.07,0,.62.35.58.4h0l.43-.07a9.31,9.31,0,0,0,1.24-.3c.24-.08.49-.16.73-.26s.49-.21.73-.33h0a9.69,9.69,0,0,0,3.53-2.9c.17-.22.33-.46.48-.69s.27-.46.39-.69A9.64,9.64,0,0,0,73.14,43a8.3,8.3,0,0,0,.28-1.09,7.8,7.8,0,0,0,0-2.89h0a7.62,7.62,0,0,0-.2-.79c0-.13-.09-.26-.14-.4L73,37.62h0a7.34,7.34,0,0,0-.86-1.52,4.58,4.58,0,0,0-.34-.43h0c-.12-.14-.24-.28-.37-.41Z" transform="translate(-23.03 -9.33)"/>
    <path d="M61.12,65a8.4,8.4,0,0,0,.8-.36l.26-.14A9.91,9.91,0,0,0,64.33,63h0a9.08,9.08,0,0,0,.68-.71c.16-.19.31-.38.46-.58s.28-.4.41-.61.2-.34.29-.51h0A8.69,8.69,0,0,0,67,58.18a7.66,7.66,0,0,0,0-3A2,2,0,0,0,67,55a1,1,0,0,0,0-.17A7.36,7.36,0,0,0,64.54,51l0,0a7.59,7.59,0,0,0-.86-.63c-.2-.12-.4-.24-.61-.35h0a6.22,6.22,0,0,0-.64-.29,5.89,5.89,0,0,0-.7-.26,8.4,8.4,0,0,0-1.1-.27h0a10.46,10.46,0,0,1-.38,1.24,11.29,11.29,0,0,1-6.4,6.33,12.75,12.75,0,0,1-1.92.58,10.43,10.43,0,0,1-1.38,3.36,10.17,10.17,0,0,1,3.36,1,8.82,8.82,0,0,1,3.76,3.64c.08.14.15.28.22.42A9.91,9.91,0,0,0,61.12,65Z" transform="translate(-23.03 -9.33)"/>
    <path d="M39.49,72.84v.06a7.49,7.49,0,0,0,.25.76l.12.31.15.16h0a8.54,8.54,0,0,1,1.58,2.31h0l.32.28.27.22c.19.14.38.28.58.4a6.44,6.44,0,0,0,.63.36,8.77,8.77,0,0,0,2.29.8,9.57,9.57,0,0,0,4.9-.35l.53-.19c.29-.12.58-.25.86-.39a10.52,10.52,0,0,0,1.48-.92h0a10.59,10.59,0,0,0,1.17-1A8.5,8.5,0,0,0,57,68l-.06-.23a5.76,5.76,0,0,0-.18-.59h0v0l-.06-.17a6.58,6.58,0,0,0-.49-1c0-.09-.1-.19-.16-.28h0a7.58,7.58,0,0,0-1.79-2c-.19-.14-.38-.28-.58-.4a6.44,6.44,0,0,0-.63-.36l-.46-.22a7.34,7.34,0,0,0-.89-.33,7.82,7.82,0,0,0-1.27-.3h0c-.31,0-.61-.08-.92-.1-.18.2-.36.4-.55.59A11.53,11.53,0,0,1,45,65.11a12.14,12.14,0,0,1-1.62.51,10.53,10.53,0,0,1-3.89,7.22Z" transform="translate(-23.03 -9.33)"/>
    <path d="M38.71,48.52a9.73,9.73,0,0,0-5.24,4.83c-.08.18-.17.36-.24.55l0,.07a8.89,8.89,0,0,0-.5,2.08,10.46,10.46,0,0,1,5.88,1.07,8.77,8.77,0,0,1,4.27,4.71l.15.45a7.76,7.76,0,0,1,.32,1.41h0a4.78,4.78,0,0,1,.06.53h0l.15,0c.33-.1.66-.21,1-.34a10,10,0,0,0,2.94-1.79h0a8.82,8.82,0,0,0,.86-.87,7.67,7.67,0,0,0,.52-.64,9.06,9.06,0,0,0,.6-.92c.11-.2.22-.4.32-.61a8.37,8.37,0,0,0,.55-1.52h0c-.34,0-.68,0-1,0h0a10.47,10.47,0,0,1-4.53-1.12,8.73,8.73,0,0,1-4.25-4.71A8.62,8.62,0,0,1,40,48.11,9.6,9.6,0,0,0,38.71,48.52Z" transform="translate(-23.03 -9.33)"/>
    <path d="M40.27,83.47a8,8,0,0,0,.44-5.07,7.46,7.46,0,0,0-.26-.8l-.12-.32a7.4,7.4,0,0,0-1.44-2.17h0a4,4,0,0,0-.29-.29l-.32-.29-.43-.33-.13-.09-.06,0a11.05,11.05,0,0,1-1.3.61,10.85,10.85,0,0,1-9-.3l-.17-.09a9.49,9.49,0,0,0-3.64,4.55q-.12.31-.21.63h0a7.73,7.73,0,0,0,0,4.24,6.21,6.21,0,0,0,.2.61,7.36,7.36,0,0,0,1.84,2.77l.13.12c.15.14.31.27.47.4a9.88,9.88,0,0,0,1.21.76,9.06,9.06,0,0,0,1.82.68c.26.07.53.12.8.17l.34,0a9.74,9.74,0,0,0,3.78-.3c.33-.1.65-.21,1-.34a9.9,9.9,0,0,0,2.28-1.27,9.79,9.79,0,0,0,1.14-1h0a9.13,9.13,0,0,0,1.81-2.58Z" transform="translate(-23.03 -9.33)"/>
    <path d="M28.76,73.43h0a6,6,0,0,0,.59.23,9.75,9.75,0,0,0,1.21.31q.32.06.63.09a8.87,8.87,0,0,0,1.71,0h0a9.86,9.86,0,0,0,2.48-.51l.49-.18.32-.13h0a11.26,11.26,0,0,0,1.57-.86l.09-.06a9.34,9.34,0,0,0,1.4-1.17h0a8.93,8.93,0,0,0,2.62-5.31h0a8.78,8.78,0,0,0,0-1h0c0-.12,0-.24,0-.36h0a6.94,6.94,0,0,0-.12-.9c0-.13-.05-.25-.08-.38a7.81,7.81,0,0,0-.26-.82,7.28,7.28,0,0,0-2.13-3L39,59.1a9.06,9.06,0,0,0-1.2-.76,9,9,0,0,0-5.11-.9h0a9.39,9.39,0,0,0-1.48.27,11.53,11.53,0,0,0-1.13.38c-4.67,1.85-7.17,6.8-5.57,11a7.41,7.41,0,0,0,2.79,3.53,8.33,8.33,0,0,0,.87.52A5.46,5.46,0,0,0,28.76,73.43Z" transform="translate(-23.03 -9.33)"/>
    <path d="M41.45,47.85a7.65,7.65,0,0,0,.46,3.27,7.47,7.47,0,0,0,3.65,4,8.52,8.52,0,0,0,1.82.69c.22.06.44.1.67.14a10.16,10.16,0,0,0,1.46.14h0a9,9,0,0,0,1-.05h0A8.45,8.45,0,0,0,52,55.82l.27-.07a8.68,8.68,0,0,0,1-.33,9.73,9.73,0,0,0,5.24-4.83q.18-.41.33-.81c.09-.26.17-.53.24-.79h0c.06-.23.1-.45.14-.68a5.51,5.51,0,0,0,.08-.71,7.53,7.53,0,0,0-.3-2.74c0-.16-.1-.31-.16-.47a7.35,7.35,0,0,0-2.05-3l-.4-.33c-.21-.16-.43-.31-.65-.45h0l-.55-.31-.15-.07c-.22-.11-.44-.2-.66-.29s-.49-.18-.73-.25h0a9.55,9.55,0,0,0-6.18.35,10.1,10.1,0,0,0-3.43,2.26h0a8.56,8.56,0,0,0-1,1.19,8.82,8.82,0,0,0-1.37,2.91,8.37,8.37,0,0,0-.24,1.4Z" transform="translate(-23.03 -9.33)"/>
    <path d="M102.83,44.46a7.62,7.62,0,0,0,.14-.81,7.36,7.36,0,0,0,.06-.82A7.45,7.45,0,0,0,98.89,36a8,8,0,0,0-1.35-.56,9.64,9.64,0,0,0-1.09-.27l-.73-.1-.4,0h-.81a9.33,9.33,0,0,0-2.32.36,9.22,9.22,0,0,0-1,.34c-.19.07-.37.15-.54.23a9.67,9.67,0,0,0-4.88,5l-.13.33a8.09,8.09,0,0,0-.41,1.61h0a7.66,7.66,0,0,0-.09,1.51c0,.25,0,.5.07.75s0,.21,0,.32.07.31.11.46a5.35,5.35,0,0,0,.21.68h0a.56.56,0,0,0,0,.12,7.2,7.2,0,0,0,1.06,1.9,7.68,7.68,0,0,0,2.59,2.15,8.52,8.52,0,0,0,1.82.69c.24.06.49.11.73.15h0a8.84,8.84,0,0,0,1.62.12A9.65,9.65,0,0,0,97,51,9.52,9.52,0,0,0,102.83,44.46Z" transform="translate(-23.03 -9.33)"/>
  </g>
</svg>
