<svg id="レイヤー_1" data-name="レイヤー 1" xmlns="http://www.w3.org/2000/svg" viewBox="0 0 40 40"><defs><style>.cls-1,.cls-2{fill:#522f60;}.cls-2{fill-rule:evenodd;}</style></defs><path class="cls-1" d="M19.3,36.1a2.33,2.33,0,0,1,.11-.28A2.33,2.33,0,0,0,19.3,36.1Z" transform="translate(-14.91 -14.35)"/><path class="cls-1" d="M41.54,47.43a5,5,0,0,1-2.19.24h0a5,5,0,0,0,2.19-.24,4.19,4.19,0,0,0,2.85-3.63A4.19,4.19,0,0,1,41.54,47.43Z" transform="translate(-14.91 -14.35)"/><path class="cls-1" d="M30.67,29a1.86,1.86,0,0,1,.1-.25A1.86,1.86,0,0,0,30.67,29Z" transform="translate(-14.91 -14.35)"/><path class="cls-1" d="M52.05,36.3a4.86,4.86,0,0,1-1.81.27h0a4.86,4.86,0,0,0,1.81-.27,4.18,4.18,0,0,0,2.8-3.22A4.18,4.18,0,0,1,52.05,36.3Z" transform="translate(-14.91 -14.35)"/><path class="cls-1" d="M46.86,41.91a4.81,4.81,0,0,1-1.91.26h0a4.81,4.81,0,0,0,1.91-.26,4.19,4.19,0,0,0,2.85-3.63A4.19,4.19,0,0,1,46.86,41.91Z" transform="translate(-14.91 -14.35)"/><path class="cls-1" d="M23,23.05a2.92,2.92,0,0,1,.37-.24A2.92,2.92,0,0,0,23,23.05Z" transform="translate(-14.91 -14.35)"/><path class="cls-1" d="M37.55,50.14a4.14,4.14,0,0,0,1-1.91h0A4.14,4.14,0,0,1,37.55,50.14Z" transform="translate(-14.91 -14.35)"/><rect class="cls-1" x="23.68" y="33.16"/><path class="cls-1" d="M22.27,45.69h0l-.05,0h0Z" transform="translate(-14.91 -14.35)"/><path class="cls-1" d="M28.8,53.73a4.16,4.16,0,0,0,2-2.5h0A4.16,4.16,0,0,1,28.8,53.73Z" transform="translate(-14.91 -14.35)"/><path class="cls-1" d="M25.88,17.13a4,4,0,0,0-1.48,4.49h0A4,4,0,0,1,25.88,17.13Z" transform="translate(-14.91 -14.35)"/><path class="cls-1" d="M22.25,46.58l.07.06h0Z" transform="translate(-14.91 -14.35)"/><path class="cls-1" d="M19.29,36.13a4.21,4.21,0,0,0-.19,1.06h0A4.21,4.21,0,0,1,19.29,36.13Z" transform="translate(-14.91 -14.35)"/><path class="cls-1" d="M22.4,23.62a4,4,0,0,0-.86,3.9A4,4,0,0,1,22.4,23.62Z" transform="translate(-14.91 -14.35)"/><path class="cls-1" d="M37.55,50.14a2.13,2.13,0,0,1-.3.3A2.13,2.13,0,0,0,37.55,50.14Z" transform="translate(-14.91 -14.35)"/><path class="cls-1" d="M50.9,28.06l.38.07Z" transform="translate(-14.91 -14.35)"/><path class="cls-1" d="M36.92,50.72l-.37.24Z" transform="translate(-14.91 -14.35)"/><path class="cls-1" d="M50.6,28h0Z" transform="translate(-14.91 -14.35)"/><path class="cls-1" d="M50.28,28h0Z" transform="translate(-14.91 -14.35)"/><path class="cls-2" d="M40.66,23.75a5.18,5.18,0,0,0-.4-1.46A5,5,0,0,0,39,16.42a1.26,1.26,0,0,1-.38-.59,1.12,1.12,0,0,1,.12-.84l0-.07a1.25,1.25,0,0,1,1.05-.57,1.33,1.33,0,0,1,.64.17l9.1,5a1.24,1.24,0,0,1,.6.75,1.12,1.12,0,0,1-.12.84,1.31,1.31,0,0,1-1.1.63,1.27,1.27,0,0,1-.47-.09A5,5,0,0,0,43,22.94l-.11,0a5.21,5.21,0,0,0-1.2.28,4.83,4.83,0,0,0-1,.47Z" transform="translate(-14.91 -14.35)"/><path class="cls-1" d="M40,26.65a5.71,5.71,0,0,1,3.32.69,5.27,5.27,0,0,1,2.3,2.44,5,5,0,0,1,2.68-2.16h0A4.52,4.52,0,0,0,48,26.4a4.59,4.59,0,0,0-2-2.17,4.94,4.94,0,0,0-3.59-.45,2.91,2.91,0,0,0-.39.12,4.36,4.36,0,0,0-1.19.63l-.15.11a3.82,3.82,0,0,1-.12.69A4.5,4.5,0,0,1,40,26.65Z" transform="translate(-14.91 -14.35)"/><path class="cls-1" d="M37.18,47.7a5.22,5.22,0,0,1-2.34-2.53,4.86,4.86,0,0,1-.4-2l-.14.05a5.6,5.6,0,0,1-1.67.31,4.66,4.66,0,0,1-1.29,5,4.18,4.18,0,0,1,.19.6,4.67,4.67,0,0,1,.08,1.82l.14.08a4.91,4.91,0,0,0,4,.33,4.11,4.11,0,0,0,.82-.38l.37-.24a3,3,0,0,0,.33-.28,2.13,2.13,0,0,0,.3-.3,4.14,4.14,0,0,0,1-1.91A6.13,6.13,0,0,1,37.18,47.7Z" transform="translate(-14.91 -14.35)"/><path class="cls-1" d="M30.89,50.43v0a4.28,4.28,0,0,0-.1-1.17c0-.08-.05-.16-.07-.24a7.69,7.69,0,0,1-.69.39l-.47.19-.24.07a5.67,5.67,0,0,1-4.41-.47l-.15-.08a4.68,4.68,0,0,1-1.26,4.29,4.48,4.48,0,0,0,.56.36,4.93,4.93,0,0,0,3.26.52,4.78,4.78,0,0,0,1.09-.34l.39-.2a4.16,4.16,0,0,0,2-2.5A3.61,3.61,0,0,0,30.89,50.43Z" transform="translate(-14.91 -14.35)"/><path class="cls-1" d="M45,32.79a4.48,4.48,0,0,1,0-.73h0a4.58,4.58,0,0,1,.22-1.28,4.08,4.08,0,0,0-.23-.67,4.29,4.29,0,0,0-1.21-1.62,4.25,4.25,0,0,0-.79-.54,3.86,3.86,0,0,0-.72-.32,4,4,0,0,0-.49-.15,4.76,4.76,0,0,0-2.4,0h0a5.12,5.12,0,0,1,.7,1.16,4.6,4.6,0,0,1,.39,2.13h0a4.05,4.05,0,0,1-.12.85,5.39,5.39,0,0,1-.22.68,5.71,5.71,0,0,1,1.47.56,5.34,5.34,0,0,1,.92.63,4.59,4.59,0,0,1,.64-.28A5.73,5.73,0,0,1,45,32.91.5.5,0,0,1,45,32.79Z" transform="translate(-14.91 -14.35)"/><path class="cls-1" d="M31.07,25.09a5,5,0,0,1,.21.91,4.45,4.45,0,0,0,.33.51A5.31,5.31,0,0,1,33,25.74a5.75,5.75,0,0,1,4.64.39,6.17,6.17,0,0,1,.82.55,3.23,3.23,0,0,1,.27.23l0,0a.6.6,0,0,0,.08-.08,4,4,0,0,0,1-1.92,2.63,2.63,0,0,0,.07-.49c0-.05,0-.1,0-.16V24a4.68,4.68,0,0,0-.14-.9,5.31,5.31,0,0,0-.2-.56,4.5,4.5,0,0,0-2-2.17,4.44,4.44,0,0,0-1-.4,4.86,4.86,0,0,0-2.51-.09A4.79,4.79,0,0,1,31.07,25.09Z" transform="translate(-14.91 -14.35)"/><path class="cls-1" d="M23.7,30.1l.08,0a5.29,5.29,0,0,1,2.14-1.42,5.68,5.68,0,0,1,3.94.07,4,4,0,0,0,.69-2.18,3,3,0,0,0,0-.42,3.83,3.83,0,0,0-.17-.87l-.18,0a5.76,5.76,0,0,1-4-.57A5.34,5.34,0,0,1,24,22.52a4.92,4.92,0,0,0-.56.29,2.92,2.92,0,0,0-.37.24,4.27,4.27,0,0,0-.63.57,4,4,0,0,0-.86,3.9c.05.14.1.28.16.41a4.56,4.56,0,0,0,2,2.17Z" transform="translate(-14.91 -14.35)"/><path class="cls-1" d="M24.46,21.8l.05.12,0,.09c0,.09.09.19.14.28a4,4,0,0,0,.89,1.17,3.31,3.31,0,0,0,.34.3l.31.22.33.2a5,5,0,0,0,1,.4,4.75,4.75,0,0,0,2.51.08h.06a4.75,4.75,0,0,0,.46-.14l.21-.08h0l0,0a4.13,4.13,0,0,0,2.6-3.52,4.61,4.61,0,0,0,0-.74h0a4.74,4.74,0,0,0-.15-.71c0-.15-.1-.29-.16-.44a4.63,4.63,0,0,0-2-2.17,4.91,4.91,0,0,0-4-.33,4.36,4.36,0,0,0-1.19.63,4,4,0,0,0-1.48,4.49Z" transform="translate(-14.91 -14.35)"/><path class="cls-1" d="M44.33,42.82a6,6,0,0,1-2.75-1.26,6.14,6.14,0,0,1-.64.27,5.73,5.73,0,0,1-4.34-.23,5.11,5.11,0,0,1-1.08,1,2.61,2.61,0,0,1-.28.17,3.87,3.87,0,0,0,0,.48h0a4.3,4.3,0,0,0,.19,1.27c0,.14.1.28.15.41a4.46,4.46,0,0,0,1.22,1.63l.3.23a3.66,3.66,0,0,0,.49.31,5,5,0,0,0,1,.4l.08,0h0a5.1,5.1,0,0,0,.76.15,5,5,0,0,0,2.19-.24,4.19,4.19,0,0,0,2.85-3.63A4.07,4.07,0,0,0,44.33,42.82Z" transform="translate(-14.91 -14.35)"/><path class="cls-1" d="M49.64,37.22a5.48,5.48,0,0,1-2-.65,5.27,5.27,0,0,1-2.3-2.44l0-.09c-.06-.14-.11-.28-.16-.42H44.8a4.89,4.89,0,0,0-1.41.27l-.38.16a4.86,4.86,0,0,1,.65.91h0c.08.15.15.3.22.45s.07.16.09.23a4.62,4.62,0,0,1-.49,4.25,4.81,4.81,0,0,1-.44.57h0a5.35,5.35,0,0,1-.8.7,5.23,5.23,0,0,0,.63.41,5,5,0,0,0,1,.41l.28.07h0a4.05,4.05,0,0,0,.84.12,4.81,4.81,0,0,0,1.91-.26,4.19,4.19,0,0,0,2.85-3.63A4.27,4.27,0,0,0,49.64,37.22Z" transform="translate(-14.91 -14.35)"/><path class="cls-1" d="M37.54,39.64h0A5,5,0,0,1,37,41a4.88,4.88,0,0,0,3.64.17L41,41a4.56,4.56,0,0,0,.65-.37h0a4.07,4.07,0,0,0,.77-.66,4.81,4.81,0,0,0,.44-.57A4,4,0,0,0,43.32,36c0-.12-.09-.25-.15-.37s-.09-.2-.14-.3h0a4.8,4.8,0,0,0-.67-1h0a5.47,5.47,0,0,0-.56-.51,5.23,5.23,0,0,0-.63-.41A5.13,5.13,0,0,0,39.74,33a4.91,4.91,0,0,1-2,1.84,4.71,4.71,0,0,1-.65.28l-.1,0a6.06,6.06,0,0,1-.7.19,5,5,0,0,1,1,1.47,4.67,4.67,0,0,1,.4,2A6,6,0,0,1,37.54,39.64Z" transform="translate(-14.91 -14.35)"/><path class="cls-1" d="M38.27,27.44h0l-.17-.16L38,27.22a4.42,4.42,0,0,0-.71-.48,4,4,0,0,0-.47-.22,4.08,4.08,0,0,0-.67-.23l-.15,0a4.75,4.75,0,0,0-2.69.15l-.22.08h0l-.19.08a4.75,4.75,0,0,0-.79.48,4.2,4.2,0,0,0-.54.48,3.93,3.93,0,0,0-.8,1.24,1.86,1.86,0,0,0-.1.25.56.56,0,0,1,0,.12,5.33,5.33,0,0,1,2.28,2.49,4.84,4.84,0,0,1,.39,2,5.51,5.51,0,0,1,1.3.43l.3.16,0,0,.33.19.31.22h0l.22,0q.31,0,.63-.12l.37-.12.36-.14h0a4.38,4.38,0,0,0,1.73-1.4l.23-.34c.06-.12.12-.23.17-.35a3.56,3.56,0,0,0,.23-.62,3.69,3.69,0,0,0,.11-.56,3.93,3.93,0,0,0-.1-1.48h0c0-.14-.08-.27-.13-.41a1.8,1.8,0,0,0-.08-.21l-.06-.12h0a4.4,4.4,0,0,0-.49-.8l-.18-.23h0a2.09,2.09,0,0,0-.2-.22Z" transform="translate(-14.91 -14.35)"/><path class="cls-1" d="M34,42.54l.4-.17.13-.06a4.47,4.47,0,0,0,1.06-.74h0c.11-.11.22-.23.32-.35a3,3,0,0,0,.22-.28c.07-.1.13-.2.19-.3l.14-.26h0a4.16,4.16,0,0,0,.36-1.2,4,4,0,0,0-.09-1.53l0-.12,0-.09a3.52,3.52,0,0,0-.15-.42,4.42,4.42,0,0,0-1.2-1.61h0a4,4,0,0,0-.46-.35l-.33-.19h0l-.34-.16-.37-.16a5.5,5.5,0,0,0-.58-.16h0a5.8,5.8,0,0,1-.16.63A5,5,0,0,1,30,38.07a5.72,5.72,0,0,1-1,.24A4.64,4.64,0,0,1,28.39,40a5.87,5.87,0,0,1,1.76.62,5.28,5.28,0,0,1,2.06,2l.12.22A4.9,4.9,0,0,0,34,42.54Z" transform="translate(-14.91 -14.35)"/><path class="cls-1" d="M23.12,46v0a3.25,3.25,0,0,0,.15.4,1.11,1.11,0,0,0,.07.16l.08.08h0a5.08,5.08,0,0,1,.89,1.23h0l.17.16.15.11a3.55,3.55,0,0,0,.31.23l.33.2a4.94,4.94,0,0,0,1.21.46A4.86,4.86,0,0,0,29,49l.27-.09a3.25,3.25,0,0,0,.43-.18,3.79,3.79,0,0,0,.73-.43h0a3.93,3.93,0,0,0,.57-.5,4,4,0,0,0,1-3.87s0-.08,0-.12-.07-.2-.11-.31h0l0-.09a4.14,4.14,0,0,0-.29-.55l-.09-.14h0a4.7,4.7,0,0,0-1-1.06l-.32-.22a2.63,2.63,0,0,0-.33-.2l-.24-.12a4.73,4.73,0,0,0-.47-.2,5.12,5.12,0,0,0-.67-.19h0l-.47-.07a3.71,3.71,0,0,1-.27.29,5.18,5.18,0,0,1-1.95,1.22,5.7,5.7,0,0,1-.81.22A4.74,4.74,0,0,1,23.12,46Z" transform="translate(-14.91 -14.35)"/><path class="cls-1" d="M22,33.48a4.27,4.27,0,0,0-2.54,2.34,2.33,2.33,0,0,0-.11.28v0a4.21,4.21,0,0,0-.19,1.06,5.7,5.7,0,0,1,3.06.7,5.22,5.22,0,0,1,2.34,2.53,2.29,2.29,0,0,1,.1.23,5.13,5.13,0,0,1,.21.74h0c0,.09,0,.18,0,.27h0l.08,0,.49-.14a4.49,4.49,0,0,0,1.46-.85h0a4.16,4.16,0,0,0,.42-.42,3.92,3.92,0,0,0,.25-.32,4.92,4.92,0,0,0,.28-.45,2.92,2.92,0,0,0,.14-.31,4.8,4.8,0,0,0,.24-.76h0a4.43,4.43,0,0,1-.52,0h0a6.31,6.31,0,0,1-.76-.1,5.88,5.88,0,0,1-1.61-.59A5.26,5.26,0,0,1,23,35.15a4.68,4.68,0,0,1-.39-1.84A4.64,4.64,0,0,0,22,33.48Z" transform="translate(-14.91 -14.35)"/><path class="cls-1" d="M23.85,51.46a4.05,4.05,0,0,0,.07-2.6c-.05-.14-.1-.28-.16-.41s-.05-.12-.07-.17a4.43,4.43,0,0,0-.81-1.15h0L22.72,47l-.17-.15a1.81,1.81,0,0,0-.23-.18l-.07-.06,0,0a4.84,4.84,0,0,1-.66.28,5.67,5.67,0,0,1-4.64-.39l-.09-.05a4.17,4.17,0,0,0-1.74,2.24c0,.1-.06.21-.08.31h0a3.94,3.94,0,0,0,.12,2.17,3,3,0,0,0,.12.32,4.33,4.33,0,0,0,1,1.47l.07.06.25.22a4.82,4.82,0,0,0,.65.42,4.75,4.75,0,0,0,1,.4l.41.11.18,0a4.88,4.88,0,0,0,1.94-.06l.49-.14a4.42,4.42,0,0,0,1.14-.6,4.13,4.13,0,0,0,.55-.47h0a4.14,4.14,0,0,0,.86-1.27Z" transform="translate(-14.91 -14.35)"/><path class="cls-1" d="M17.61,46h0l.31.13a4.71,4.71,0,0,0,.64.19l.32.07a4.39,4.39,0,0,0,.89.06h0A4.93,4.93,0,0,0,21,46.26l.24-.08.17-.06h0a4.77,4.77,0,0,0,.78-.4l.05,0a4.72,4.72,0,0,0,.68-.56h0a4,4,0,0,0,1.18-2.66h0a3,3,0,0,0,0-.52h0a1.11,1.11,0,0,0,0-.19h0a3.89,3.89,0,0,0-.09-.47A1.39,1.39,0,0,0,24,41.1a3.12,3.12,0,0,0-.15-.43,4.51,4.51,0,0,0-1.19-1.61l-.18-.14a3.92,3.92,0,0,0-.64-.42,4.91,4.91,0,0,0-2.66-.6h0a4.67,4.67,0,0,0-.75.1,3.41,3.41,0,0,0-.57.16,4.1,4.1,0,0,0-2.53,5.51,4.51,4.51,0,0,0,1.55,1.89l.46.28Z" transform="translate(-14.91 -14.35)"/><path class="cls-1" d="M23.35,33.21a4.09,4.09,0,0,0,.34,1.69,4.48,4.48,0,0,0,2,2.17,5,5,0,0,0,1,.4l.35.09a6.32,6.32,0,0,0,.76.11h.53a4.92,4.92,0,0,0,.76-.09l.13,0,.5-.14a4.26,4.26,0,0,0,2.54-2.35,2.74,2.74,0,0,0,.15-.4c0-.13.07-.27.1-.4h0c0-.12,0-.23.05-.35s0-.24,0-.36a4.1,4.1,0,0,0-.24-1.41,2.6,2.6,0,0,0-.1-.25,4.4,4.4,0,0,0-1.14-1.56,1.74,1.74,0,0,0-.22-.18l-.35-.25h0l-.3-.18-.08,0-.34-.16a3.12,3.12,0,0,0-.39-.15h0a4.92,4.92,0,0,0-3.17,0,4.33,4.33,0,0,0-1.69,1.07h0A3.79,3.79,0,0,0,24,31a3.92,3.92,0,0,0-.61,1.46,3.36,3.36,0,0,0-.08.71Z" transform="translate(-14.91 -14.35)"/><path class="cls-1" d="M54.85,33.08a2.7,2.7,0,0,0,0-.41c0-.13,0-.27,0-.41a4.08,4.08,0,0,0-.34-1.47,4.5,4.5,0,0,0-2-2.17,5,5,0,0,0-.71-.32c-.19-.07-.38-.12-.57-.17l-.38-.07-.21,0h-.41a4.35,4.35,0,0,0-1.19.13,4.84,4.84,0,0,0-.51.14l-.27.11A4.25,4.25,0,0,0,46,30.83c0,.05,0,.11-.05.17a4.31,4.31,0,0,0-.17.81h0a4.07,4.07,0,0,0,0,.78,2.71,2.71,0,0,0,.06.38l0,.16c0,.09.05.17.07.25s.08.23.13.35h0l0,.06a4.28,4.28,0,0,0,.6,1A4.8,4.8,0,0,0,48.06,36a5,5,0,0,0,1,.41l.38.09h0a4.83,4.83,0,0,0,2.65-.16A4.18,4.18,0,0,0,54.85,33.08Z" transform="translate(-14.91 -14.35)"/></svg>