<?xml version="1.0" encoding="utf-8"?>
<!-- Generator: Adobe Illustrator 26.0.3, SVG Export Plug-In . SVG Version: 6.00 Build 0)  -->
<svg version="1.1" id="レイヤー_1" xmlns="http://www.w3.org/2000/svg" xmlns:xlink="http://www.w3.org/1999/xlink" x="0px"
	 y="0px" viewBox="0 0 213 79" style="enable-background:new 0 0 213 79;" xml:space="preserve">
<style type="text/css">
	.st0{fill-rule:evenodd;clip-rule:evenodd;fill:#4E2E5D;}
	.st1{fill-rule:evenodd;clip-rule:evenodd;fill:#FFC0CB;stroke:#FFFFFF;stroke-miterlimit:10;}
	.st2{fill:#FFFFFF;}
	.st3{fill:#F7F7F7;}
	.st4{font-family:'AB-kokoro_no3-83pv-RKSJ-H';}
	.st5{font-size:34.0159px;}
	.st6{fill:none;}
	.st7{fill:#FFFFFF;stroke:#FFFFFF;stroke-miterlimit:10;}
</style>
<g>
	<g>
		<g>
			<g>
				<path class="st0" d="M171.4,13.1H28.1c-2.9,0-5.3,2.2-5.3,4.9v49c0,2.7,2.4,4.9,5.3,4.9h143.4c2.9,0,5.3-2.2,5.3-4.9V18
					C176.8,15.3,174.4,13.1,171.4,13.1z"/>
			</g>
		</g>
		<g>
			<g>
				<g>
					<path class="st1" d="M169.8,24.1c-2.4,2.2-1.6,5.1,0.3,6.9l10.6,10c-1.7,0.2-3,0.8-3.3,2.1l-4.8,18c0,0,4.8,8,13.7,6.6l2.5,2.3
						c0,0,1.8,1.5,4,0.4c2.9-1.5,7.4-4.3,10.6-9.5c1.3-2.1-0.8-4.1-0.8-4.1l-1.5-1.4c0.7-2.6,1-7.5-2.5-11l-21.2-19.9
						C175.5,22.7,172.2,22,169.8,24.1z"/>
					<path class="st1" d="M172.5,61.1c0,0,6.9,10.9,17.3,6"/>
				</g>
				<path class="st1" d="M188.5,50.7c0,0-3.2,3.6,0.2,8.1"/>
			</g>
			<path class="st1" d="M177.3,56.6c1.4,1.3,1.6,3.2-0.1,4.8l-0.5,0.4c-1.7,1.6-4.4,1.7-6.4-0.1l-5.2-4.7c-2.1-1.9-1.5-4.8,0.3-6.4
				l0,0c1.7-1.6,3.6-1.6,5-0.3L177.3,56.6z"/>
			<path class="st1" d="M182.1,52.9c1.6,1.4,1.6,3.6-0.1,5.2l-0.2,0.2c-1.7,1.6-4.4,1.7-6,0.3l-7.6-7c-1.6-1.4-1-3.9,0.8-5.5l0,0
				c1.7-1.6,4-1.7,5.5-0.3L182.1,52.9z"/>
			<path class="st1" d="M187.7,47.5c1.6,1.5,1.8,3.7,0,5.4l-0.4,0.3c-1.8,1.7-4.3,1.7-6.8-0.6l-7.2-6.6c-1.6-1.5-1.1-4,0.7-5.6l0,0
				c1.8-1.7,4-1.7,5.7-0.2L187.7,47.5z"/>
			<path class="st1" d="M199.6,58.1c0,0,7.4-10.8-4.1-15.6c0,0-14.5-6.2-15.3-1.3c-0.8,4.4,6.5,7.1,13,8.3"/>
		</g>
		<g>
			<path class="st2" d="M52.3,49.4c-0.8-0.7-0.9-1.9-0.2-2.7l2.1-2.6c0.6-0.8,1.8-0.9,2.5-0.3c0.8,0.7,0.9,1.9,0.2,2.7l-2.1,2.6
				C54.2,49.9,53,50.1,52.3,49.4z M52.5,37.3c0-1,0.8-1.9,1.8-1.9H60v-3.1c0-1,0.8-1.9,1.8-1.9c1,0,1.8,0.8,1.8,1.9v3.1h5.3
				c1,0,1.8,0.9,1.8,1.9c0,1-0.8,1.9-1.8,1.9h-5.3v13.7c0,0.9-0.5,1.8-1.8,1.8h-2.1c-1,0-1.8-0.8-1.8-1.9c0-1,0.9-1.9,1.8-1.9H60
				V39.2h-5.7C53.3,39.2,52.5,38.3,52.5,37.3z M71.2,46.6c0.7,0.8,0.5,2-0.2,2.6c-0.8,0.7-1.9,0.6-2.6-0.2l-2-2.5
				c-0.6-0.8-0.6-2,0.2-2.6c0.8-0.7,1.9-0.6,2.6,0.2L71.2,46.6z M72.2,32.2c0,1.4-1.1,2.5-2.4,2.5c-1.3,0-2.4-1.1-2.4-2.5
				c0-1.4,1.1-2.5,2.4-2.5C71.1,29.7,72.2,30.8,72.2,32.2z M70.8,32.1c0-0.6-0.5-1.1-1.1-1.1c-0.6,0-1.1,0.5-1.1,1.1
				c0,0.6,0.5,1.1,1.1,1.1C70.4,33.2,70.8,32.8,70.8,32.1z"/>
			<path class="st2" d="M78.3,42.8c-0.5-0.9-0.1-2,0.8-2.5c7.6-4.1,10.9-6.8,12.3-8.4c0.7-0.8,1.8-0.9,2.6-0.3
				c0.8,0.6,0.9,1.9,0.2,2.7c-0.8,0.9-1.8,1.9-3.3,3v14.9c0,1-0.8,1.9-1.8,1.9c-1,0-1.8-0.9-1.8-1.9V39.7c-1.8,1.1-4,2.5-6.7,4
				C79.9,44.1,78.7,43.7,78.3,42.8z"/>
			<path class="st2" d="M104.3,37.2c-0.9-0.5-1.2-1.6-0.7-2.6c0.5-0.9,1.6-1.2,2.4-0.7l3.1,1.8c0.8,0.5,1.2,1.7,0.7,2.6
				c-0.5,0.9-1.6,1.2-2.4,0.7L104.3,37.2z M120.6,37.4c-0.8,3.7-2.4,6.8-4.3,9.3c-2.1,2.8-5.4,5-9.8,6c-0.9,0.2-2-0.4-2.3-1.4
				c-0.2-1.1,0.6-2,1.5-2.2c3.9-1,6.3-2.6,7.8-4.6c1.7-2.3,2.8-4.8,3.8-8.2c0.2-1,1.3-1.6,2.2-1.2C120.5,35.3,120.9,36.4,120.6,37.4
				z"/>
			<path class="st2" d="M140.5,44.1c0,0-4.5-1.4-7.2-2.3v10.6c0,1-0.8,1.9-1.8,1.9c-1,0-1.8-0.9-1.8-1.9v-20c0-1,0.8-1.9,1.8-1.9
				c1,0,1.8,0.9,1.8,1.9v5.6c2.9,0.9,8.3,2.6,8.3,2.6c0.9,0.3,1.5,1.4,1.2,2.4S141.4,44.4,140.5,44.1z"/>
		</g>
		<text transform="matrix(1.0809 0.522 -0.4939 0.8695 139.7393 49.2609)" class="st3 st4 st5">!</text>
	</g>
	<path class="st6" d="M52.2,25c-0.4,0.1-0.5,0.5-0.4,0.8c0.2,0.4,0.7,0.8,1.1,0.6c0.4-0.1,0.5-0.5,0.4-0.9
		C53.2,25.1,52.7,24.8,52.2,25z"/>
	<path class="st6" d="M28.6,35.4c-0.7,0.8-0.9,1.2-1.1,1.6c0.8,0,1.2,0,1.4-0.1c0.1,0,0.2-0.1,0.1-0.3C28.9,36,28.8,35.7,28.6,35.4z
		"/>
	<path class="st6" d="M40.9,29.1c-0.4,0.1-0.5,0.5-0.4,0.8c0.2,0.4,0.7,0.8,1.1,0.6c0.4-0.1,0.5-0.5,0.4-0.9
		C41.9,29.1,41.4,28.9,40.9,29.1z"/>
	<path class="st6" d="M60.8,23.6c0.2,0.6,0.6,0.9,0.9,0.8c0.3-0.1,0.6-0.5,1-1.7c-0.5-0.6-1-1.2-1.4-1.9
		C60.8,21.7,60.5,22.6,60.8,23.6z"/>
	<path class="st6" d="M63.1,21.6c0.3-0.9,0.5-1.9,0.8-3c-0.7,0.3-1.4,0.7-2,1.3C62.3,20.5,62.7,21.1,63.1,21.6z"/>
	<path class="st7" d="M30.8,29.3c0.1,0,0.2-0.1,0.3-0.1c0.2-0.1,0.6-0.1,1,0c0.3,0.1,0.4,0.2,0.4,0.2c0,0.1,0,0.1,0,0.2
		c-0.1,0.2-0.3,0.4-0.5,0.6c0,0,0,0.1,0,0.1c0,0,0.1,0.1,0.1,0.1c0.3-0.1,0.5-0.2,0.7-0.3c0.2-0.1,0.4-0.1,0.5-0.1
		c0.3,0,0.4,0,0.5,0c0.3-0.1,0.5-0.4,0.4-0.9c-0.3-0.7-1.5-1.1-2.8-0.6c-0.3,0.1-0.6,0.3-0.9,0.6c0,0,0,0.1,0,0.1
		C30.7,29.3,30.8,29.3,30.8,29.3z"/>
	<path class="st7" d="M32.3,31.6c-1,0.4-1.5,0.8-3.1,2.2c-0.2-0.5-0.4-1.1-0.6-1.8c0.4-0.3,0.8-0.5,1.2-0.8c0.2-0.1,0.2-0.2,0.1-0.5
		c-0.1-0.3-0.6-0.5-0.9-0.4c-0.1,0-0.4,0.2-0.8,0.5c-0.3-1-0.3-1.1-0.2-1.3c0-0.1,0-0.2,0-0.3c-0.1-0.2-0.9-0.5-1.7-0.2
		c-0.2,0.1-0.4,0.2-0.5,0.4c0,0.1,0,0.1,0,0.1c0,0,0.1,0.1,0.1,0.1c0.5-0.1,0.7,0,0.9,0.6c0.1,0.3,0.2,0.6,0.5,1.3
		c-0.6,0.4-1,0.6-1.4,0.7c-0.3,0.1-0.5,0.1-0.9,0.1c-0.1,0-0.1,0-0.1,0c0,0-0.1,0.1,0,0.2c0.1,0.3,1.1,1,1.6,0.8
		c0.2-0.1,0.6-0.3,1.2-0.7c0.2,0.7,0.5,1.3,0.7,2c-0.5,0.4-1.1,1.1-1.7,1.7c-0.1,0.1-0.2,0.2-0.3,0.3c-0.2,0.1-0.3,0-0.4-0.1
		c-0.1-0.1-0.2-0.1-0.2-0.1c0,0-0.1,0-0.1,0.1c0,0.1,0,0.4,0.1,0.5c0.3,0.8,0.8,1.1,1.2,1c0.2-0.1,0.3-0.2,0.4-0.3
		c0.1-0.1,0.1-0.2,0.2-0.3c0.9,0.1,1.2,0.3,1.8,0.9c0.2,0.2,0.2,0.2,0.5,0.1c0.6-0.2,1-0.9,0.8-1.5c-0.1-0.3-0.2-0.5-0.3-0.7
		c-0.1-0.2-0.3-0.7-0.5-1.2c0-0.1-0.1-0.2-0.1-0.3c0.9-1,2.2-2.2,2.9-2.4c0.7-0.3,1.5-0.2,1.7,0.5c0.4,1-0.4,2-1.4,2.3
		c-0.8,0.3-1.6,0.2-2.1-0.7c-0.1-0.1-0.1-0.1-0.2-0.1c-0.1,0-0.1,0.1,0,0.2c0.6,1.6,1.9,2.1,3.2,1.6c1.7-0.6,2.2-2.1,1.8-3.3
		C34.9,31.4,33.4,31.2,32.3,31.6z M29,36.9c-0.2,0.1-0.6,0.1-1.4,0.1c0.2-0.3,0.4-0.8,1.1-1.6c0.1,0.3,0.2,0.6,0.4,1.2
		C29.1,36.7,29.1,36.8,29,36.9z"/>
	<path class="st7" d="M44.7,20.2c-0.3,0-0.7,0-0.8,0c-0.1,0-0.3,0.1-0.4,0.3c-0.5,0.4-0.8,0.6-1.7,1.1c-0.2-0.4-0.2-0.7-0.3-1
		c0-0.3-0.1-0.5,0-0.6c0-0.3,0-0.3,0-0.4c-0.1-0.3-1-0.4-1.8-0.1c-0.3,0.1-0.8,0.5-1.1,0.8c-0.1,0.1-0.1,0.1-0.1,0.2
		c0,0.1,0.1,0.1,0.2,0l0.4-0.1c0.5-0.2,0.8-0.1,1,0.1c0.2,0.4,0.3,0.5,0.4,0.9c0.1,0.3,0.2,0.6,0.3,0.8c-0.9,0.6-1.9,1.1-2.9,1.7
		c-0.5,0.3-0.9,0.6-1.1,0.6c-0.2,0.1-0.3,0-0.4-0.1c0-0.1-0.1-0.2-0.1-0.4c0,0,0-0.1,0-0.1c0-0.1-0.1-0.1-0.1-0.1
		c0,0-0.1,0.1-0.1,0.1c-0.2,0.4-0.4,0.9-0.2,1.3c0.2,0.5,0.8,0.8,1.1,0.7c0.1,0,0.2-0.1,0.4-0.3c0.2-0.2,0.3-0.3,0.7-0.6
		c0.7-0.5,1.7-1.2,3.1-2l0.5,1.4c-0.4-0.1-0.6,0-0.9,0.1c-0.7,0.3-1.1,1.1-0.8,1.8c0.3,0.9,1.3,1.3,2.2,1c0.2-0.1,0.3-0.1,0.4-0.2
		c0.3,1.4-0.5,2.7-2.2,3.5c-0.1,0-0.1,0.1-0.1,0.2c0,0.1,0.1,0.1,0.2,0.1c0.2,0,0.3-0.1,0.6-0.2c2.3-0.8,3.4-2.6,2.7-4.6
		c-0.1-0.4-0.3-0.8-0.6-1c-0.2-0.4-0.3-0.6-0.5-1.2c-0.2-0.5-0.3-0.9-0.5-1.4c1.2-0.6,1.8-0.9,2.5-1.2l0.7-0.3
		c0.3-0.1,0.3-0.2,0.3-0.5C45.5,20.4,45.2,20.2,44.7,20.2z M41.7,26.5c-0.5,0.2-1-0.2-1.1-0.6c-0.1-0.3,0-0.7,0.4-0.8
		c0.5-0.2,0.9,0.1,1.1,0.5C42.2,26,42,26.3,41.7,26.5z"/>
	<path class="st7" d="M56,16.1c-0.2,0-0.7,0-0.8,0c-0.1,0-0.3,0.1-0.4,0.3c-0.5,0.4-0.8,0.6-1.7,1.1c-0.2-0.4-0.2-0.7-0.3-1
		c0-0.3-0.1-0.5,0-0.6c0-0.3,0-0.3,0-0.4c-0.1-0.3-1-0.4-1.8-0.1c-0.3,0.1-0.8,0.5-1.1,0.8c-0.1,0.1-0.1,0.1-0.1,0.2
		c0,0.1,0.1,0.1,0.2,0l0.4-0.1c0.5-0.2,0.8-0.1,1,0.1c0.2,0.4,0.3,0.5,0.4,0.9c0.1,0.3,0.2,0.6,0.3,0.8c-0.9,0.6-1.9,1.1-2.9,1.7
		c-0.5,0.3-0.9,0.6-1.1,0.6c-0.2,0.1-0.3,0-0.4-0.1c0-0.1-0.1-0.2-0.1-0.4c0,0,0-0.1,0-0.1c0-0.1-0.1-0.1-0.1-0.1
		c0,0-0.1,0.1-0.1,0.1c-0.2,0.4-0.4,0.9-0.2,1.3c0.2,0.5,0.8,0.8,1.1,0.7c0.1,0,0.2-0.1,0.4-0.3c0.2-0.2,0.3-0.3,0.7-0.6
		c0.7-0.5,1.7-1.2,3.1-2l0.5,1.4c-0.4-0.1-0.6,0-0.9,0.1c-0.7,0.3-1.1,1.1-0.8,1.8c0.3,0.9,1.3,1.3,2.2,1c0.2-0.1,0.3-0.1,0.4-0.2
		c0.3,1.4-0.5,2.7-2.2,3.5c-0.1,0-0.1,0.1-0.1,0.2c0,0.1,0.1,0.1,0.2,0.1c0.2,0,0.3-0.1,0.6-0.2c2.3-0.8,3.4-2.6,2.7-4.6
		c-0.1-0.4-0.3-0.8-0.6-1c-0.2-0.4-0.3-0.6-0.5-1.2c-0.2-0.5-0.3-0.9-0.5-1.4c1.2-0.6,1.8-0.9,2.5-1.2l0.7-0.3
		c0.3-0.1,0.3-0.2,0.3-0.5C56.8,16.3,56.5,16.1,56,16.1z M52.9,22.4c-0.5,0.2-1-0.2-1.1-0.6c-0.1-0.3,0-0.7,0.4-0.8
		c0.5-0.2,0.9,0.1,1.1,0.5C53.5,21.9,53.3,22.3,52.9,22.4z"/>
	<path class="st7" d="M69.9,17.7c-0.5-1.5-2.3-2.2-3.7-1.9c0.1-0.5,0.3-1,0.5-1.4c0.1-0.2,0.1-0.3,0.1-0.4c-0.2-0.4-1.4-0.8-2.1-0.6
		c-0.2,0.1-0.3,0.1-0.6,0.3C64,13.7,64,13.8,64,13.8c0,0.1,0.1,0.1,0.2,0.1c0.4,0,0.7,0,0.8,0.3c0.1,0.3,0.1,0.9-0.1,1.8
		c-0.9,0.3-1.6,0.8-2.3,1.4c-0.3-0.5-0.6-1-0.7-1.3c-0.2-0.4-0.2-0.5-0.4-0.6c-0.2-0.1-0.8-0.2-1.2,0c-0.2,0.1-0.3,0.1-0.5,0.3
		c-0.1,0.1-0.1,0.1-0.1,0.2c0,0,0.1,0.1,0.1,0.1c0.3,0,0.4,0.1,0.7,0.3c0.5,0.5,0.9,1.1,1.4,1.9c-0.9,1.1-1.5,2.8-1.1,3.9
		c0.4,1.1,1.3,1.8,2.3,1.4c0.4-0.2,0.7-0.7,0.9-1.2c0.1-0.2,0.2-0.5,0.4-0.9c0.3,0.3,0.5,0.3,0.7,0.3c0.2-0.1,0.4-0.5,0.3-0.7
		c-0.1-0.1-0.1-0.2-0.2-0.4c-0.1-0.1-0.2-0.2-0.3-0.3c0.3-0.8,0.4-1.2,0.6-2c0.2-0.7,0.3-1.1,0.5-1.8c1.1-0.2,2,0.4,2.3,1.2
		c0.9,2.4-1.2,4.6-3.5,5.8c-0.1,0-0.1,0.1-0.1,0.2c0,0,0.1,0.1,0.1,0.1c0.1,0,0.2,0,0.4-0.1C67.5,22.8,70.9,20.5,69.9,17.7z
		 M62.7,22.4c-0.3,0.1-0.7-0.2-0.9-0.8c-0.3-0.9,0-1.9,0.5-2.8c0.4,0.6,0.9,1.3,1.4,1.9C63.3,21.8,63,22.3,62.7,22.4z M64.1,19.6
		c-0.4-0.5-0.8-1.1-1.2-1.7c0.6-0.6,1.2-1,2-1.3C64.6,17.7,64.4,18.7,64.1,19.6z"/>
</g>
</svg>
