<svg id="レイヤー_1" data-name="レイヤー 1" xmlns="http://www.w3.org/2000/svg" width="58.05" height="56.48" viewBox="0 0 58.05 56.48">
  <defs>
    <style>
      .cls-1, .cls-4 {
        fill: #522f60;
      }

      .cls-2 {
        fill: #fff;
      }

      .cls-3 {
        fill: none;
      }

      .cls-3, .cls-4 {
        stroke: #fff;
        stroke-miterlimit: 10;
      }
    </style>
  </defs>
  <g>
    <g>
      <g>
        <path class="cls-1" d="M17.23,66a5.51,5.51,0,0,1-5.5-5.5v-42a5.51,5.51,0,0,1,5.5-5.5H54.92a5.51,5.51,0,0,1,5.5,5.5V43.67c-.43.52-1.32,1.76-3.42,4.68l-9.33,13A12.75,12.75,0,0,1,38.58,66Z" transform="translate(-11.23 -12.53)"/>
        <path class="cls-2" d="M54.92,13.53a5,5,0,0,1,5,5V43.46c-.21.27-.48.64-.85,1.16-.64.88-1.51,2.1-2.47,3.44l-9.33,13a12.21,12.21,0,0,1-8.69,4.46H17.23a5,5,0,0,1-5-5v-42a5,5,0,0,1,5-5H54.92m0-1H17.23a6,6,0,0,0-6,6v42a6,6,0,0,0,6,6H38.58a13.16,13.16,0,0,0,9.5-4.88l9.33-13c1.92-2.68,3.49-4.86,3.5-4.86h0s0-2.69,0-6V18.53a6,6,0,0,0-6-6Z" transform="translate(-11.23 -12.53)"/>
      </g>
      <g>
        <line class="cls-1" x1="37.52" y1="25.48" x2="12.17" y2="25.48"/>
        <line class="cls-3" x1="37.52" y1="25.48" x2="12.17" y2="25.48"/>
      </g>
      <g>
        <line class="cls-1" x1="12.17" y1="9.51" x2="37.52" y2="9.51"/>
        <line class="cls-3" x1="12.17" y1="9.51" x2="37.52" y2="9.51"/>
      </g>
      <g>
        <line class="cls-1" x1="37.52" y1="41.45" x2="12.17" y2="41.45"/>
        <line class="cls-3" x1="37.52" y1="41.45" x2="12.17" y2="41.45"/>
      </g>
      <g>
        <line class="cls-1" x1="12.17" y1="25.48" x2="37.52" y2="25.48"/>
        <line class="cls-3" x1="12.17" y1="25.48" x2="37.52" y2="25.48"/>
      </g>
      <g>
        <line class="cls-1" x1="12.17" y1="41.45" x2="37.52" y2="41.45"/>
        <line class="cls-3" x1="12.17" y1="41.45" x2="37.52" y2="41.45"/>
      </g>
    </g>
    <g>
      <rect class="cls-4" x="53.18" y="40.73" width="5.29" height="28.97" transform="translate(34.03 -35.12) rotate(37.58)"/>
      <polygon class="cls-4" points="57.19 26.31 51.34 29.91 55.21 32.89 57.19 26.31"/>
    </g>
  </g>
</svg>
