<svg id="レイヤー_1" data-name="レイヤー 1" xmlns="http://www.w3.org/2000/svg" viewBox="0 0 57.62 56.48"><defs><style>.cls-1{fill:#fff;}.cls-2,.cls-3{fill:none;}.cls-2{stroke:#000;}.cls-2,.cls-3,.cls-4,.cls-5{stroke-miterlimit:10;}.cls-3,.cls-4,.cls-5{stroke:#fff;}.cls-5{stroke-width:0.5px;}</style></defs><path d="M6,53.5A5.51,5.51,0,0,1,.5,48V6A5.51,5.51,0,0,1,6,.5H43.69A5.51,5.51,0,0,1,49.19,6V25.27c0,2.91,0,5.34,0,5.87-.43.52-1.31,1.76-3.41,4.68l-9.33,13a12.79,12.79,0,0,1-9.09,4.67Z"/><path d="M43.69,1a5,5,0,0,1,5,5V25.27c0,2.85,0,4.92,0,5.66l-.85,1.16-2.46,3.44L36,48.54A12.18,12.18,0,0,1,27.35,53H6a5,5,0,0,1-5-5V6A5,5,0,0,1,6,1H43.69m0-1H6A6,6,0,0,0,0,6V48a6,6,0,0,0,6,6H27.35a13.16,13.16,0,0,0,9.5-4.88l9.33-13c1.92-2.68,3.49-4.86,3.5-4.86h0s0-2.69,0-6V6a6,6,0,0,0-6-6Z"/><line class="cls-1" x1="37.52" y1="25.48" x2="12.17" y2="25.48"/><line class="cls-2" x1="37.52" y1="25.48" x2="12.17" y2="25.48"/><line class="cls-1" x1="12.17" y1="9.51" x2="37.52" y2="9.51"/><line class="cls-3" x1="12.17" y1="9.51" x2="37.52" y2="9.51"/><line class="cls-1" x1="37.52" y1="41.45" x2="12.17" y2="41.45"/><line class="cls-2" x1="37.52" y1="41.45" x2="12.17" y2="41.45"/><line class="cls-1" x1="12.17" y1="25.48" x2="37.52" y2="25.48"/><line class="cls-3" x1="12.17" y1="25.48" x2="37.52" y2="25.48"/><line class="cls-1" x1="12.17" y1="41.45" x2="37.52" y2="41.45"/><line class="cls-3" x1="12.17" y1="41.45" x2="37.52" y2="41.45"/><rect class="cls-4" x="41.94" y="28.2" width="5.29" height="28.97" transform="translate(35.29 -18.34) rotate(37.58)"/><polygon class="cls-5" points="57.19 26.31 51.34 29.91 55.21 32.89 57.19 26.31"/></svg>