<svg id="レイヤー_1" data-name="レイヤー 1" xmlns="http://www.w3.org/2000/svg" viewBox="0 0 55.2 51.79"><defs><style>.cls-1,.cls-3{fill:#522f60;}.cls-2,.cls-4{fill:#fff;}.cls-3,.cls-4{stroke:#fff;stroke-miterlimit:10;stroke-width:0.57px;}</style></defs><rect class="cls-1" y="16.48" width="41.91" height="28.07" rx="3.97"/><ellipse class="cls-2" cx="20.96" cy="28.81" rx="4.59" ry="4.17"/><rect class="cls-2" x="19.29" y="30.7" width="3.34" height="5.68"/><path class="cls-1" d="M36.57,12.44c-6.27,0-11.36,3.27-11.36,7.31V31.12h2.28v-11c0-3.22,4.06-5.84,9.08-5.84s9.09,2.62,9.09,5.84v11h2.27V19.75C47.93,15.71,42.84,12.44,36.57,12.44Z" transform="translate(-15.62 -12.44)"/><path class="cls-3" d="M63.9,31.44c-3.66,0-6.63,3.74-6.63,8.35a10,10,0,0,0,.48,3.09l-13.22,13,2.33,3.78,1.76-1.73,3.63,5.87,3.49-3.42-3.63-5.88,1.7-1.66,3.57,5.79,3.46-3.39-3.57-5.79,2.84-2.79a5.69,5.69,0,0,0,3.79,1.51c3.66,0,6.63-3.74,6.63-8.35S67.56,31.44,63.9,31.44Zm0,11.69c-1.46,0-2.65-1.49-2.65-3.34s1.19-3.34,2.65-3.34,2.65,1.5,2.65,3.34S65.36,43.13,63.9,43.13Z" transform="translate(-15.62 -12.44)"/><ellipse class="cls-4" cx="48.28" cy="27.35" rx="2.65" ry="3.34"/></svg>