<svg id="レイヤー_1" data-name="レイヤー 1" xmlns="http://www.w3.org/2000/svg" viewBox="0 0 40 40"><defs><style>.cls-1{fill:#522f60;}.cls-2{fill:#fff;}</style></defs><circle class="cls-1" cx="20" cy="20" r="20"/><path class="cls-2" d="M25.88,37.2A23,23,0,0,0,26,34.4v-.81H23.19a13,13,0,0,0-2,.13V31.17a10.36,10.36,0,0,0,2,.15H26v-.38l-.64-1.06H23.23a11.6,11.6,0,0,0-2,.13V27.46a10.56,10.56,0,0,0,2,.15H24l-2.37-3.84c-.4-.68-1.13-1.8-1.51-2.31h4.67a9.63,9.63,0,0,0,.87,2l2.22,4.2,2.23-4.18a8.9,8.9,0,0,0,.87-2h4.65c-.34.49-1.32,2-1.49,2.31l-2.35,3.84h.78a11,11,0,0,0,2-.15V30a13,13,0,0,0-2-.13H30.46l-.66,1.06v.38h2.76a10.88,10.88,0,0,0,2-.15v2.55a14,14,0,0,0-2-.13H29.8v.81A19.77,19.77,0,0,0,30,37.2Z" transform="translate(-7.9 -9.33)"/></svg>