<?xml version="1.0" encoding="UTF-8"?>
<svg id="_レイヤー_1" data-name="レイヤー 1" xmlns="http://www.w3.org/2000/svg" viewBox="0 0 100 80">
  <defs>
    <style>
      .cls-1 {
        fill: #fff;
        stroke: #ccc;
        stroke-miterlimit: 10;
        stroke-width: 1.07px;
      }

      .cls-2 {
        fill: #e6e6e6;
      }
    </style>
  </defs>
  <g>
    <polygon class="cls-2" points="71.58 54.81 8.91 54.81 0 17.86 80.49 11.38 71.58 54.81"/>
    <polygon class="cls-2" points="72.5 67.94 67.38 67.04 81.41 .16 86.52 1.06 72.5 67.94"/>
    <path class="cls-2" d="M16.78,65.8v-.25c0-1.22,1.08-2.21,2.41-2.21h53.54l-.52,4.66H19.19c-1.33,0-2.41-.99-2.41-2.21Z"/>
    <path class="cls-2" d="M100,1.93v.22c.01,1.07-.33,1.94-.77,1.95l-17.68,.16,.13-4.09L99.18,0c.44,0,.81,.86,.82,1.93Z"/>
    <ellipse class="cls-2" cx="29.1" cy="75.2" rx="5.24" ry="4.8"/>
    <ellipse class="cls-2" cx="62.4" cy="75.2" rx="5.24" ry="4.8"/>
  </g>
  <polygon class="cls-1" points="46.97 28.61 46.97 2.41 35.89 2.41 35.89 28.61 28.53 28.61 41.54 50.22 54.55 28.61 46.97 28.61"/>
</svg>