<svg id="レイヤー_1" data-name="レイヤー 1" xmlns="http://www.w3.org/2000/svg" viewBox="0 0 40 40">
  <defs>
    <style>
      .cls-1 {
        fill: #522f60;
      }
    </style>
  </defs>
  <g>
    <path class="cls-1" d="M5.3,38.76l7.89,2.61C16.78,40.28,30,35.92,37.24,25.59c6.35-9.1,4.24-17.38,3.35-20.14L32.71,2.84c.88,2.11,4.58,11.83-3.6,22C21.49,34.33,8.65,37.91,5.3,38.76Z" transform="translate(-1.65 -2.33)"/>
    <path class="cls-1" d="M26.44,10.72a9.81,9.81,0,0,0,6.61,2.33A10.94,10.94,0,0,0,34.2,13C38,12.69,41,10.65,41.27,8.11c0-.12,0-.24,0-.36a3.72,3.72,0,0,0-.66-2.17h0l-.09-.14c-1.28-1.81-4-3.08-7.29-3.1-.38,0-.76,0-1.13,0Z" transform="translate(-1.65 -2.33)"/>
    <path class="cls-1" d="M1.65,39.84a9.71,9.71,0,0,0,6.78,2.49,11.47,11.47,0,0,0,4.75-1c2.08-1,3.45-2.54,3.49-4.34A3.86,3.86,0,0,0,16,34.85c-1.23-1.88-4.06-3.21-7.38-3.24H8.46Z" transform="translate(-1.65 -2.33)"/>
  </g>
</svg>
