<svg id="レイヤー_1" data-name="レイヤー 1" xmlns="http://www.w3.org/2000/svg" viewBox="0 0 34.56 32.62">
  <defs>
    <style>
      .cls-1 {
        fill: #e6e6e6;
      }

      .cls-2 {
        fill: #fff;
      }
    </style>
  </defs>
  <g>
    <path class="cls-1" d="M41.33,18a2.09,2.09,0,0,1-.65.55l-30-10.07a1.38,1.38,0,0,1,.27-.68,2.06,2.06,0,0,1,.45-.43C13.68,5.7,21.21,6.37,29,9s13.1,6.25,12.58,8.47A1.53,1.53,0,0,1,41.33,18Z" transform="translate(-7.21 -6.34)"/>
    <path class="cls-1" d="M24.84,8c1.08-1.45,3.71-2,5.88-1.32s3,2.5,2,3.95" transform="translate(-7.21 -6.34)"/>
    <path class="cls-2" d="M26.41,8.5a3.29,3.29,0,0,1,3.52-.79c1.3.43,1.83,1.49,1.18,2.36" transform="translate(-7.21 -6.34)"/>
    <path class="cls-1" d="M33.68,39H15.51c-2.15,0-4-.84-4.21-1.95L7.21,18.4c-.06-.29.28-.55.72-.55H41c.44,0,.78.26.72.55L37.9,37C37.67,38.12,35.85,39,33.68,39Z" transform="translate(-7.21 -6.34)"/>
    <path class="cls-2" d="M15,22.18h.19c.39,0,.72.21.72.48V34.15c0,.27-.33.49-.72.49H15c-.4,0-.72-.22-.72-.49V22.66C14.31,22.39,14.63,22.18,15,22.18Z" transform="translate(-7.21 -6.34)"/>
    <path class="cls-2" d="M24.39,22.18h.19c.4,0,.72.21.72.48V34.15c0,.27-.32.49-.72.49h-.19c-.4,0-.72-.22-.72-.49V22.66C23.67,22.39,24,22.18,24.39,22.18Z" transform="translate(-7.21 -6.34)"/>
    <path class="cls-2" d="M33.75,22.18h.19c.4,0,.72.21.72.48V34.15c0,.27-.32.49-.72.49h-.19c-.4,0-.72-.22-.72-.49V22.66C33,22.39,33.35,22.18,33.75,22.18Z" transform="translate(-7.21 -6.34)"/>
  </g>
</svg>
