<svg id="レイヤー_1" data-name="レイヤー 1" xmlns="http://www.w3.org/2000/svg" viewBox="0 0 201.11 150.65"><defs><style>.cls-1{fill:none;stroke:#fff;stroke-miterlimit:10;}.cls-2{fill:#150e00;}.cls-3{fill:#fff;}</style></defs><path d="M118.19,40.79a6.18,6.18,0,0,0-8,3L76,117.23a5.85,5.85,0,0,0,3,7.85L172,165.94a6.18,6.18,0,0,0,8-3l34.13-73.41a5.86,5.86,0,0,0-3-7.85Z" transform="translate(-14.05 -16.3)"/><path class="cls-1" d="M118.19,40.79a6.18,6.18,0,0,0-8,3L76,117.23a5.85,5.85,0,0,0,3,7.85L172,165.94a6.18,6.18,0,0,0,8-3l34.13-73.41a5.86,5.86,0,0,0-3-7.85Z" transform="translate(-14.05 -16.3)"/><path d="M109.48,64.33l24.08,53a7,7,0,0,0,8.21,3.71l57-17.48" transform="translate(-14.05 -16.3)"/><path class="cls-1" d="M109.48,64.33l24.08,53a7,7,0,0,0,8.21,3.71l57-17.48" transform="translate(-14.05 -16.3)"/><path class="cls-2" d="M110.64,129.89,58.76,155.13a2.62,2.62,0,0,1-3.58-1.62L14.27,45.84a3.26,3.26,0,0,1,1.43-4.05L67.58,16.55a2.62,2.62,0,0,1,3.58,1.61l40.91,107.68A3.26,3.26,0,0,1,110.64,129.89Z" transform="translate(-14.05 -16.3)"/><polygon class="cls-3" points="87.22 98.84 41.7 120.99 8.6 33.86 54.11 11.72 87.22 98.84"/><ellipse class="cls-3" cx="81.87" cy="135.07" rx="5.22" ry="6.49" transform="translate(-38.47 1.94) rotate(-11.07)"/></svg>