<svg id="レイヤー_1" data-name="レイヤー 1" xmlns="http://www.w3.org/2000/svg" viewBox="0 0 199 135">
  <defs>
    <style>
      .cls-x {
        fill: #150e00;
      }
    </style>
  </defs>
  <g>
    <path class="cls-x" d="M172.39,18.79H77.55L44.15,67.36H61.41v82H72.48v-53H93.15v53h94.47v-82h18.17Zm5.26,116.74H108.28v-61h69.37Z" transform="translate(-6.79 -18.79)"/>
    <path class="cls-1" d="M44,66.26a1.66,1.66,0,0,1-.74.24v2.2l.92-1.34H44Z" transform="translate(-6.79 -18.79)"/>
    <rect class="cls-x" x="16.42" y="39.65" width="6.27" height="95.35"/>
    <path class="cls-x" d="M45.91,33.47a12,12,0,0,0-12-12H18.79a12,12,0,0,0-12,12v13a12,12,0,0,0,12,12h4.43V54h6.27v4.46h4.42a12,12,0,0,0,12-12Z" transform="translate(-6.79 -18.79)"/>
  </g>
</svg>
