<?xml version="1.0" encoding="utf-8"?>
<!-- Generator: Adobe Illustrator 25.4.6, SVG Export Plug-In . SVG Version: 6.00 Build 0)  -->
<svg version="1.1" id="レイヤー_1" xmlns="http://www.w3.org/2000/svg" xmlns:xlink="http://www.w3.org/1999/xlink" x="0px"
	 y="0px" viewBox="0 0 166 173" style="enable-background:new 0 0 166 173;" xml:space="preserve">
<style type="text/css">
	.st0{fill:#FFFFFF;}
	.st1{stroke:#FFFFFF;stroke-width:1.6525;stroke-miterlimit:10;}
</style>
<path d="M109.42,144.1H19.39c-6.33,0-11.47-5.13-11.47-11.47v-63.9c0-6.33,5.13-11.47,11.47-11.47h90.03
	c6.33,0,11.47,5.13,11.47,11.47v63.9C120.88,138.97,115.75,144.1,109.42,144.1z"/>
<g>
	<ellipse class="st0" cx="64.4" cy="95.42" rx="12.37" ry="12.89"/>
	<rect x="59.9" y="101.27" class="st0" width="9" height="17.58"/>
</g>
<path d="M64.4,6.29c-16.9,0-30.61,10.12-30.61,22.61v35.17h6.12V30.16c0-9.99,10.96-18.09,24.49-18.09s24.49,8.1,24.49,18.09v33.92
	h6.12V28.9C95.01,16.41,81.31,6.29,64.4,6.29z"/>
<g>
	<path class="st1" d="M138.06,65.07c-9.87,0-17.86,11.57-17.86,25.84c0,3.38,0.46,6.6,1.28,9.57l-35.63,40.12l6.29,11.69l4.75-5.35
		l9.78,18.17l9.41-10.6l-9.78-18.17l4.56-5.14l9.64,17.9l9.32-10.49l-9.64-17.9l7.66-8.62c2.9,2.93,6.42,4.66,10.22,4.66
		c9.87,0,17.86-11.57,17.86-25.84S147.92,65.07,138.06,65.07z M138.06,101.24c-3.95,0-7.15-4.63-7.15-10.33
		c0-5.71,3.2-10.33,7.15-10.33s7.15,4.63,7.15,10.33C145.2,96.61,142,101.24,138.06,101.24z"/>
	<ellipse class="st1" cx="138.06" cy="90.91" rx="7.15" ry="10.33"/>
</g>
</svg>
