<svg version="1.2" xmlns="http://www.w3.org/2000/svg" viewBox="0 0 62 53" width="62" height="53"><defs><clipPath clipPathUnits="userSpaceOnUse" id="cp1"><path d="m-580-2816h1440v4235h-1440z"/></clipPath></defs><style>.a{fill:#522f60}</style><g clip-path="url(#cp1)"><path class="a" d="m61 19h-5.5v30.3h-28.5v-19.6h-6.2v19.6h-3.3v-30.3h-5.2l10-18h28.6zm-8.5 25.2h-20.9v-22.6h20.9zm-40.3-25.2h0.1l-0.3 0.5v-0.8q0.1 0 0.2-0.1zm-6.2-3.3h1.9v35.3h-1.9zm6.8-4.4c0 2.4-1.6 4.4-3.6 4.4h-1.3v-1.7h-1.9v1.7h-1.4c-1.9 0-3.6-2-3.6-4.4v-4.9c0-2.4 1.7-4.4 3.6-4.4h4.6c2 0 3.6 2 3.6 4.4z"/></g></svg>